<svg id="Layer_1" data-name="Layer 1" xmlns="http://www.w3.org/2000/svg" xmlns:xlink="http://www.w3.org/1999/xlink" viewBox="0 0 292.44 292.51"><defs><symbol id="_1056_outline_cleaned" data-name="1056_outline+cleaned" viewBox="0 0 292.44 292.51"><path d="M291.31,150.61l-1.12.81-2.94-.1-6.19-.2-1.56-1.55,2-1.76.8.73,2.33,0,.06-2.31H280l0-2.51,6.59-.12,3.81-.07,1,.89v-.89l1.13,0q0-1.36-.08-2.71l-1.08,0,0-.87-1.08.89-2.94.11-6.19.25-1.63-1.44s.48-.47.92-.94l.9-1,.88.67,2.33-.13-.18-2.3-4.67.34-.17-2.5,6.57-.6,3.8-.35,1,.82-.06-.88,1.11-.1q-.12-1.35-.27-2.7l-1.07.11-.11-.86-1,1-2.93.32-6.16.7-1.78-1.31,1.7-2,.91.61,2.31-.3-.29-2.29-4.63.68,0-.39c0-.23-.06-.54-.12-.85l-.21-1.23,6.5-1.08,3.76-.62,1.1.74-.14-.87,1.1-.18c-.15-.89-.3-1.78-.46-2.67l-1.08.19-.15-.86-.93,1-2.9.54-6.09,1.15-1.83-1.18.8-1.07c.4-.54.76-1.07.76-1.07l1,.53,2.28-.47-.52-2.25-4.57,1-.54-2.44,6.41-1.55,3.7-.9,1.13.66-.19-.87,1.09-.27c-.21-.88-.43-1.76-.66-2.63l-1,.26-.24-.84-.83,1.09-2.85.75-6,1.59-2-1,1.38-2.25,1,.47,2.24-.63-.63-2.22-4.48,1.35-.33-1.21-.39-1.19,6.28-2,3.63-1.17,1.2.57-.27-.84,1.05-.34c-.28-.86-.56-1.72-.85-2.57l-1,.35-.28-.82-.77,1.16-2.79,1-5.86,2-2-.9.63-1.17c.32-.59.6-1.18.6-1.18l.52.19.51.2,2.19-.8-.12-.34-.29-.74-.43-1.07-4.37,1.68-.9-2.33,6.11-2.48,3.53-1.43,1.21.49-.31-.83,1-.42c-.34-.84-.68-1.67-1-2.5l-1,.41-.36-.79-.66,1.2L276.09,91l-5.69,2.45-2.09-.73,1-2.42,1,.32,2.13-1-1-2.1-4.23,2-.5-1.15-.56-1.12,5.91-2.92,3.42-1.69,1.27.39-.39-.79,1-.49c-.4-.81-.8-1.62-1.22-2.42l-1,.5-.4-.77-.59,1.26-2.62,1.35-5.5,2.86-2.1-.6.45-1.25c.23-.63.42-1.25.42-1.25l.54.11.53.12,2.05-1.11s-.27-.51-.57-1l-.58-1-4.08,2.3-1.23-2.18,5.68-3.34,3.29-1.93,1.27.31-.43-.77,1-.57c-.46-.78-.92-1.56-1.39-2.33l-.91.55-.47-.73-.48,1.29-2.51,1.54-5.27,3.26-2.17-.42.67-2.55,1.08.16,2-1.26-1.25-1.95-3.9,2.59-.67-1.06-.72-1,5.42-3.75,3.14-2.17,1.31.2-.5-.73.91-.63c-.51-.74-1-1.48-1.56-2.22l-.89.63-.5-.71-.4,1.33-2.39,1.72-5,3.63-2.16-.29.26-1.31c.13-.66.23-1.3.23-1.3l1.1.07,1.87-1.4-1.43-1.82L252,64.58l-1.53-2,5.14-4.13,3-2.39,1.3.12-.54-.7.87-.7q-.85-1.06-1.71-2.1l-.82.68-.57-.66-.29,1.34-2.26,1.89-4.74,4-2.21-.11.3-2.62H249l1.76-1.53-1.51-1.75-3.48,3.12s-.39-.49-.82-.94l-.86-.91,4.83-4.49,2.79-2.6h1.32l-.6-.65.81-.76q-.92-1-1.86-2l-.79.75-.6-.63-.21,1.38-2.12,2-4.44,4.32-2.18,0,.07-1.33,0-1.31,1.1-.09,1.65-1.65-1.67-1.59L239,50l-1.8-1.75,4.49-4.83,2.59-2.79,1.31-.07L245,40l.75-.82q-1-.92-2-1.83l-.72.79-.66-.57-.09,1.37-2,2.19-4.12,4.63L234,46l-.08-2.64,1.08-.15,1.52-1.77-1.75-1.52-3,3.59s-.46-.43-1-.81l-1-.78,4.13-5.14,2.39-3,1.31-.18-.69-.56.7-.87q-1.06-.85-2.13-1.68l-.67.85-.68-.54v1.39l-1.8,2.33-3.77,4.92-2.15.34s0-.67-.13-1.32l-.15-1.3,1.08-.25,1.39-1.87-1.88-1.34L224,37.52l-2-1.47,3.74-5.43,2.16-3.14,1.28-.25-.72-.52.63-.91Q228,25,226.83,24.28l-.6.89-.73-.47.11,1.37L224,28.53l-3.41,5.18-2.14.53-.46-2.6,1-.31,1.25-2-1.94-1.25-2.44,4-.33-.21-.74-.44-1.08-.63,3.34-5.69L219,21.84l1.27-.36L219.5,21l.56-1-2.35-1.35-.54.94-.75-.43.2,1.38-1.44,2.57-3,5.41-2.08.65s-.15-.66-.32-1.28l-.34-1.26,1-.4,1.1-2.05-2.06-1.05-2.15,4.16-2.22-1.16L208,20.25l1.68-3.42L211,16.4l-.78-.41.49-1-2.44-1.17-.46,1-.79-.36.3,1.34L206,18.43l-2.62,5.62-2,.83-.83-2.51,1-.46,1-2.13-2.1-1-1.84,4.3-.36-.16-.8-.32-1.16-.47,2.47-6.11,1.43-3.53,1.2-.55-.82-.34.42-1-2.52-1-.39,1-.81-.32.4,1.34-1.05,2.75-2.2,5.79-2,.94s-.24-.63-.5-1.22l-.52-1.2,1-.55L193.1,16l-2.19-.74-1.51,4.43L187,18.85l2-6.28,1.17-3.63,1.15-.61-.84-.3L190.87,7l-2.59-.8-.32,1L187.13,7l.5,1.28-.85,2.82L185,17l-1.9,1.12-1.19-2.36.91-.6.63-2.25-2.22-.63-1.18,4.53s-.6-.18-1.21-.31l-1.22-.29,1.55-6.41.9-3.7,1.11-.72-.86-.21.26-1.09L178,3.48l-.24,1.06-.85-.2.59,1.26-.64,2.88-1.32,6.05-1.8,1.22s-.33-.59-.67-1.14l-.69-1.11.87-.68.46-2.29-2.27-.41-.85,4.6-2.46-.46,1.07-6.51L169.76,4l1.05-.78-.87-.17.18-1.1-2.68-.42-.16,1.06-.86-.11.68,1.19-.42,2.91-.87,6.13-1.71,1.39L162.56,12l.82-.73.29-2.31-2.29-.29-.51,4.65s-.62-.1-1.24-.16l-1.25-.1L159,6.47l.34-3.8,1-.88-.88-.08.1-1.11c-.9-.08-1.8-.16-2.7-.22l-.09,1.09-.87-.07.77,1.16-.21,2.94L156,11.69l-1.61,1.48-.83-1c-.42-.53-.85-1-.85-1l.38-.4.38-.39L153.6,8l-.36,0-.79,0-1.16,0-.17,4.68-2.5-.08.12-6.59.07-3.81.93-.93-.89,0,0-1.12c-.88,0-1.76,0-2.64,0h-.07V1.06l-.87,0,.85,1.08V5.1l0,6.2-1.5,1.64L142.83,11l.7-.84,0-2.33-2.31.06.17,4.68-1.25,0c-.63,0-1.25,0-1.25,0l-.36-6.58-.21-3.81.43-.51.43-.49h-.44l-.44,0-.06-1.1-2.7.17.07,1.1-.87.07.93,1,.21,2.94.47,6.18-1.37,1.71-2-1.8.64-.87-.21-2.32-1.15.09c-.57.06-1.15.14-1.15.14l.51,4.65-2.49.3-.84-6.54-.48-3.78.78-1.06-.88.1-.15-1.13c-.9.11-1.79.25-2.68.38L125,2.62l-.86.11,1,1,.43,2.91.92,6.13-.63.88-.61.92L123.18,13l.57-.94-.38-2.3-2.27.41.85,4.6-2.47.42-1.32-6.46L117.39,5l.71-1.09-.87.14L117,2.93c-.89.18-1.77.38-2.65.57l.23,1.06-.85.2,1.06.88.64,2.87,1.37,6-1.11,1.9L113.51,15l.5-1-.55-2.27-1.13.26c-.57.12-1.12.28-1.12.28l1.18,4.53-2.41.67-1.79-6.35-1-3.67.62-1.16-.86.23-.31-1.09c-.87.25-1.74.5-2.6.76l.3,1-.84.24,1.13.82.85,2.82L107.29,17l-.49,1c-.25.48-.48,1-.48,1L104,17.73l.43-1-.72-2.22-2.19.74,1.51,4.43-2.38.78-2.25-6.2-1.3-3.58.54-1.18-.84.27-.38-1c-.85.31-1.69.63-2.54,1l.38,1-.81.32,1.18.71,1.06,2.75L98,20.25l-.82,2-2.39-1.14.36-1L94.25,18l-1.07.42-.74.29-.33.15,1.84,4.3-2.29,1-2.7-6-1.56-3.48.44-1.24-.81.36-.46-1c-.83.37-1.64.75-2.46,1.14l.45,1-.79.36,1.24.64,1.26,2.66,2.66,5.6-.34,1c-.17.51-.33,1-.33,1l-2.45-.92.27-1.07L85,22.1,83,23.16l2.15,4.16-2.24,1.12-3.13-5.8-1.81-3.35L78.3,18l-.79.39-.52-1c-.8.43-1.58.87-2.37,1.31l.53.95-.75.43,1.27.53,1.45,2.57,3.06,5.39-.51,2.14L77.12,30l.2-1.07-1.18-2-1,.58c-.51.28-1,.59-1,.59l2.44,4-2.12,1.34-3.55-5.56-2.05-3.21.26-1.29-.75.47-.61-1c-.76.49-1.52,1-2.27,1.48l.59.9-.73.47,1.32.46,1.63,2.45,3.45,5.15-.19,1.07c-.1.53-.17,1.08-.17,1.08l-2.56-.56.12-1.09-1.33-1.92-1.88,1.34,2.73,3.8-2.06,1.43-3.94-5.29L60.19,30.6l.17-1.29-.73.5L59,28.94c-.72.54-1.44,1.09-2.15,1.64l.66.86L56.8,32l1.34.34,1.8,2.33,3.81,4.89-.2,2.19-2.62-.41,0-1.09-1.46-1.82-.91.71c-.46.35-.89.74-.89.74l3,3.59-1.91,1.63-4.31-5L52,37.23l.07-1.31-.68.57-.74-.85c-.68.59-1.36,1.19-2,1.8l.71.8-.66.57,1.37.26,2,2.19,4.16,4.6,0,1.09V48l-2.62-.19,0-1.1L51.88,45l-1.67,1.6L53.46,50l-1.83,1.71L47,47.07l-2.7-2.69v-1.3l-.65.6-.77-.77c-.64.64-1.27,1.29-1.89,1.94l.78.76-.6.63,1.38.15,2.12,2,4.48,4.28.12,2.19-2.66,0-.11-1.08-1.71-1.59-.8.84c-.4.42-.76.87-.76.87L46.65,57,45,58.92l-5-4.31-2.88-2.49L37,50.8l-.59.66-.86-.74q-.89,1-1.75,2.07l.81.69-.28.33c-.15.16-.28.34-.28.34l1.39.05,2.26,1.88L42.49,60l.13,1.09.16,1.1-2.62.19L40,61.33l-1.82-1.46-1.43,1.82,3.7,2.86-.78,1-.54.67-.23.31-5.29-3.94L30.51,60.3l-.11-.65L30.3,59l-.28.34c-.14.17-.27.35-.27.35l-.88-.65q-.81,1.09-1.6,2.19l.88.64-.5.71L29,62.55l2.39,1.72,5,3.59L36.91,70l-2.64.35L34,69.31,32.09,68l-.67.94-.62,1,3.9,2.59-1.37,2.1L27.77,71l-3.21-2-.31-1.28-.49.74-1-.6q-.73,1.14-1.44,2.3l.9.56-.23.37-.22.38.68-.08.69-.07,2.51,1.54L31,76.05s.13.52.29,1.06l.31,1.06L29,78.74l-.35-1-2-1.18-1.15,2,4.08,2.3L29,81.9c-.33.53-.61,1.09-.61,1.09l-5.8-3.13L19.2,78.06,19,77.43l-.19-.62-.22.38-.21.39-1-.52q-.64,1.19-1.27,2.4l1,.51-.4.77,1.36-.25,2.62,1.35,5.52,2.82.74,2.06-2.56.73-.41-1-2.09-1s-.27.51-.52,1l-.48,1.05,4.23,2-1.05,2.27-6-2.7-3.48-1.56-.49-1.22-.38.8-1-.46q-.55,1.24-1.09,2.48l1,.42s-.1.2-.17.4l-.16.4L13.56,90l2.71,1.15L22,93.56s.21.5.45,1l.46,1-2.46.93-.5-1-2.16-.87-.85,2.15,4.37,1.68-.47,1.16c-.25.58-.45,1.17-.45,1.17l-6.2-2.25-3.58-1.3-.3-.59L10,96.09s-.09.2-.16.41l-.15.42-1-.37q-.46,1.27-.9,2.56l1,.36-.28.82,1.31-.45,2.79,1,5.87,2,1,1.93-2.43,1.1-.55-.93-2.22-.71-.37,1.1-.31,1.11,4.48,1.35-.7,2.4-6.35-1.78-3.67-1-.66-1.13-.25.85-1.09-.3Q5,108,4.69,109.33l1,.27L5.6,110l-.1.42.63-.28.65-.27,2.85.74,6,1.54s.27.46.58.93l.61.93-2.29,1.29-.64-.89-2.27-.55-.52,2.25,4.57,1-.29,1.22-.2.84c-.05.23-.08.38-.08.38l-6.46-1.31-3.73-.76L4.52,117l-.36-.54-.11.43c-.06.21-.09.43-.09.43l-1.07-.22c-.18.88-.35,1.77-.51,2.66l1.08.2-.15.86,1.23-.64,2.9.53,6.1,1.1,1.31,1.76L12.6,125l-.69-.84-2.3-.38-.2,1.14c-.1.57-.16,1.14-.16,1.14l4.63.68-.34,2.48L7,128.4l-3.78-.48-.83-1-.12.88-1.13-.14c-.11.89-.21,1.79-.31,2.69l1.06.12-.11.86,1.2-.72,2.93.32,6.16.65.7.83.73.83-2.07,1.61-.77-.79-2.32-.21-.18,2.3,4.67.34-.22,2.5L6,138.61l-3.81-.21-.88-1-.08.88-1.1-.06c0,.9-.08,1.8-.12,2.71l1.08,0,0,.87,1.12-.81,2.94.1,6.19.2,1.56,1.55-2,1.76-.8-.73-2.33,0-.06,2.31h4.68l0,2.51-6.59.12-3.81.07-1-.89v.89L0,149q0,1.36.08,2.71l1.08,0,0,.87,1.08-.89,2.94-.11,6.19-.25L13,152.69s-.48.47-.92.94l-.9,1-.88-.67L8,154l.18,2.3,4.67-.34.17,2.5-6.57.6-3.8.35-1-.82.06.88-1.11.1q.12,1.35.27,2.7l1.07-.11.11.86,1-1,2.93-.32,6.16-.7,1.78,1.31-1.7,2-.91-.61-2.31.3.29,2.29,4.63-.68,0,.39c0,.23.06.54.12.85l.21,1.23-6.5,1.08L4,169.9l-1.1-.74L3,170l-1.1.18c.15.89.3,1.78.46,2.67l1.08-.19.15.86.93-1,2.9-.54,6.09-1.15L15.38,172l-.8,1.07c-.4.54-.76,1.07-.76,1.07l-1-.53-2.28.47.52,2.25,4.57-1,.54,2.44L9.8,179.31l-3.7.9L5,179.55l.19.87-1.09.27c.21.88.43,1.76.66,2.63l1-.26.24.84.83-1.09L9.68,182l6-1.59,2,1-1.38,2.25-1-.47-2.24.63.63,2.22,4.48-1.35.33,1.21.39,1.19-6.28,2-3.63,1.17-1.2-.57.27.84L7,191c.28.86.56,1.72.85,2.57l1-.35.28.82.77-1.16,2.79-1,5.86-2,2,.9-.63,1.17c-.32.59-.6,1.18-.6,1.18l-.52-.19-.51-.2-2.19.8.12.34.29.74.43,1.07L21.29,194l.9,2.33-6.11,2.48-3.53,1.43-1.21-.49.31.83-1,.42c.34.84.68,1.67,1,2.5l1-.41.36.79.66-1.2,2.71-1.16L22,199.07l2.09.73-1,2.42-1-.32-2.13,1,1,2.1,4.23-2,.5,1.15.56,1.12-5.91,2.92-3.42,1.69-1.27-.39.39.79-1,.49c.4.81.8,1.62,1.22,2.42l1-.5.4.77.59-1.26,2.62-1.35,5.5-2.86,2.1.6-.45,1.25c-.23.63-.42,1.25-.42,1.25L27,211l-.53-.12-2.05,1.11s.27.51.57,1l.58,1,4.08-2.3,1.23,2.18-5.68,3.34-3.29,1.93-1.27-.31.43.77-1,.57c.46.78.92,1.56,1.39,2.33l.91-.55.47.73.48-1.29,2.51-1.54,5.27-3.26,2.17.42-.67,2.55-1.08-.16-2,1.26,1.25,1.95,3.9-2.59.67,1.06.72,1-5.42,3.75L27.51,228l-1.31-.2.5.73-.91.63c.51.74,1,1.48,1.56,2.22l.89-.63.5.71.4-1.33,2.39-1.72,5-3.63,2.16.29-.26,1.31c-.13.66-.23,1.3-.23,1.3l-1.1-.07L35.26,229l1.43,1.82,3.7-2.86,1.53,2L36.78,234l-3,2.39-1.3-.12.54.7-.87.7q.85,1.06,1.71,2.1l.82-.68.57.66.29-1.34,2.26-1.89,4.74-4,2.21.11-.3,2.62H43.4l-1.76,1.53,1.51,1.75,3.48-3.12s.39.49.82.94l.86.91-4.83,4.49-2.79,2.6H39.38l.6.65-.81.76q.92,1,1.86,2l.79-.75.6.63.21-1.38,2.12-2,4.44-4.32,2.18,0-.07,1.33,0,1.31-1.1.09-1.65,1.65,1.67,1.59,3.25-3.37,1.8,1.75L50.74,249l-2.59,2.79-1.31.07.63.62-.75.82q1,.92,2,1.83l.72-.79.66.57.09-1.37,2-2.19,4.12-4.63,2.2-.21.08,2.64-1.08.15L56,251.1l1.75,1.52,3-3.59s.46.43,1,.81l1,.78-4.13,5.14-2.39,3-1.31.18.69.56-.7.87q1.06.85,2.13,1.68l.67-.85.68.54V260.3l1.8-2.33L63.86,253l2.15-.34s0,.67.13,1.32l.15,1.3-1.08.25-1.39,1.87,1.88,1.34,2.73-3.8,2,1.47-3.74,5.43L64.56,265l-1.28.25.72.52-.63.91q1.11.77,2.24,1.52l.6-.89.73.47-.11-1.37L68.47,264l3.41-5.18,2.14-.53.46,2.6-1,.31-1.25,2,1.94,1.25,2.44-4,.33.21.74.44,1.08.63-3.34,5.69-1.93,3.29-1.27.36.76.45-.56,1,2.35,1.35.54-.94.75.43-.2-1.38,1.44-2.57,3-5.41,2.08-.64s.15.66.32,1.28l.34,1.26-1,.4-1.1,2.05,2.06,1.05,2.15-4.16,2.22,1.16-2.91,5.91-1.68,3.42-1.23.44.78.41-.49,1,2.44,1.17.46-1,.79.36-.3-1.34,1.25-2.67L89,268.46l2-.83.83,2.51-1,.46-1,2.13,2.1,1,1.84-4.3.36.16.8.32,1.16.47-2.47,6.11L92.33,280l-1.2.55.82.34-.42,1,2.52,1,.39-1,.81.32-.4-1.34,1.05-2.75,2.2-5.79,2-.94s.24.63.5,1.22l.52,1.2-1,.55-.79,2.19,2.19.74,1.51-4.43,2.36.83-2,6.28-1.17,3.63-1.15.61.84.3-.34,1.05,2.59.8.32-1,.84.24-.5-1.28.85-2.82,1.76-5.94,1.9-1.12,1.19,2.36-.91.6-.63,2.25,2.22.63,1.18-4.53s.6.18,1.21.31l1.22.29-1.55,6.41-.9,3.7-1.11.72.86.21-.26,1.09,2.64.61.24-1.06.85.2L115,286.9l.64-2.88L117,278l1.8-1.22s.33.59.67,1.14l.69,1.11-.87.68-.46,2.29,2.27.41.85-4.6,2.46.46-1.07,6.51-.62,3.76-1.05.78.87.17-.18,1.1L125,291l.16-1.06.86.11-.68-1.19.42-2.91.87-6.13,1.71-1.39,1.53,2.15-.82.73-.29,2.31,2.29.29.51-4.65s.62.1,1.24.16l1.25.1-.59,6.57-.34,3.8-1,.88.88.08-.1,1.11c.9.08,1.8.16,2.7.22l.09-1.09.87.07-.77-1.16L136,287l.42-6.18,1.61-1.48.83,1c.42.53.85,1,.85,1l-.38.4-.38.39-.12,2.33.36,0,.79,0,1.16,0,.17-4.68,2.5.08-.12,6.59-.07,3.81-.93.93.89,0,0,1.12c.88,0,1.76,0,2.64,0h.07v-1.06l.87,0-.85-1.08V287.4l0-6.2,1.5-1.64,1.83,1.9-.7.84,0,2.33,2.31-.06-.17-4.68,1.25,0c.63,0,1.25,0,1.25,0l.36,6.58.21,3.81-.43.51-.43.49h.44l.44,0,.06,1.1,2.7-.17-.07-1.1.87-.07-.93-1-.21-2.94-.47-6.18,1.37-1.71,2,1.8-.64.87.21,2.32,1.15-.09c.57-.06,1.15-.14,1.15-.14l-.51-4.65,2.49-.3.84,6.54.48,3.78-.78,1.06.88-.1.15,1.13c.9-.11,1.79-.25,2.68-.38l-.15-1.06.86-.11-1-1-.43-2.91-.92-6.13.63-.88.61-.92,2.08,1.6-.57.94.38,2.3,2.27-.41-.85-4.6,2.47-.42,1.32,6.46.76,3.73-.71,1.09.87-.14.22,1.07c.89-.18,1.77-.38,2.65-.57l-.23-1.06.85-.2-1.06-.88L177,284l-1.37-6,1.11-1.9,2.2,1.49-.5,1,.55,2.27,1.13-.26c.57-.12,1.12-.28,1.12-.28L180,275.69l2.41-.67,1.79,6.35,1,3.67-.62,1.16.86-.23.31,1.09c.87-.25,1.74-.5,2.6-.76l-.3-1,.84-.24-1.13-.82-.85-2.82-1.81-5.93.49-1c.25-.48.48-1,.48-1l2.29,1.27-.43,1,.72,2.22,2.19-.74-1.51-4.43,2.38-.78,2.25,6.2,1.3,3.58-.54,1.18.84-.27.38,1c.85-.31,1.69-.63,2.54-1l-.38-1,.81-.32-1.18-.71L196.71,278l-2.24-5.78.82-2,2.39,1.14-.36,1,.88,2.16,1.07-.42.74-.29.33-.15-1.84-4.3,2.29-1,2.7,6,1.56,3.48-.44,1.24.81-.36.46,1c.83-.37,1.64-.75,2.46-1.14l-.45-1,.79-.36-1.24-.64L206.19,274l-2.66-5.6.34-1c.17-.51.33-1,.33-1l2.45.92-.27,1.07,1,2.09,2.06-1.06-2.15-4.16,2.24-1.12,3.13,5.8,1.81,3.35-.36,1.25.79-.39.52,1c.8-.43,1.58-.87,2.37-1.31l-.53-.95.75-.43-1.27-.53-1.45-2.57-3.06-5.39.51-2.14,2.54.78-.2,1.07,1.18,2,1-.58c.51-.28,1-.59,1-.59l-2.44-4,2.12-1.34,3.55,5.56,2.05,3.21-.26,1.29.75-.47.61,1c.76-.49,1.52-1,2.27-1.48l-.59-.9.73-.47-1.32-.46-1.63-2.45-3.45-5.15.19-1.07c.1-.53.17-1.08.17-1.08l2.56.56-.12,1.09,1.33,1.92,1.88-1.34L224,255l2.06-1.43,3.94,5.29,2.28,3.05-.17,1.29.73-.5.66.88c.72-.54,1.44-1.09,2.15-1.64l-.66-.86.68-.54-1.34-.34-1.8-2.33L228.68,253l.2-2.19,2.62.41,0,1.09,1.46,1.82.91-.71c.46-.35.89-.74.89-.74l-3-3.59,1.91-1.63,4.31,5,2.49,2.88-.07,1.31L241,256l.74.85c.68-.59,1.36-1.19,2-1.8l-.71-.8.66-.57-1.37-.26-2-2.19-4.16-4.6,0-1.09v-1.11l2.62.19,0,1.1,1.59,1.7,1.67-1.6L239,242.49l1.83-1.71,4.66,4.66,2.7,2.69v1.3l.65-.6.77.77c.64-.64,1.27-1.29,1.89-1.94l-.78-.76.6-.63-1.38-.15-2.12-2-4.48-4.28-.12-2.19,2.66,0,.11,1.08,1.71,1.59.8-.84c.4-.42.76-.87.76-.87l-3.48-3.12,1.66-1.88,5,4.31,2.88,2.49.12,1.31L256,241l.86.74q.89-1,1.75-2.07l-.81-.69.29-.33c.15-.16.28-.34.28-.34L257,238.3l-2.26-1.88-4.78-3.95-.13-1.09-.16-1.1,2.62-.19.2,1.08,1.82,1.46,1.43-1.82L252,228l.78-1,.54-.67.23-.31,5.29,3.94,3.06,2.28.11.65.1.64.28-.34c.14-.17.27-.35.27-.35l.88.65q.81-1.09,1.6-2.19l-.88-.64.5-.71-1.38.05L261,228.24l-5-3.59-.43-2.15,2.64-.35.26,1.05,1.92,1.32.67-.94.62-1-3.9-2.59,1.37-2.1,5.56,3.54,3.21,2,.31,1.28.49-.74,1,.6q.73-1.14,1.44-2.3l-.9-.56.23-.37.22-.38-.68.08-.69.07-2.51-1.54-5.3-3.22s-.13-.52-.29-1.06l-.31-1.06,2.57-.57.35,1,2,1.18,1.15-2-4.08-2.3.64-1.08c.33-.53.61-1.09.61-1.09l5.8,3.13,3.35,1.81.21.63.19.62.22-.38.21-.39,1,.52q.64-1.19,1.27-2.4l-1-.51.4-.77-1.36.25-2.62-1.35-5.52-2.82-.74-2.06,2.56-.73.41,1,2.09,1s.27-.51.52-1l.48-1.05-4.23-2,1.05-2.27,6,2.7,3.48,1.56.49,1.22.38-.8,1,.46q.55-1.24,1.09-2.48l-1-.42s.1-.2.17-.4l.16-.4-1.33.35-2.71-1.15-5.71-2.41s-.21-.5-.45-1l-.46-1L272,196l.5,1,2.16.87.85-2.15L271.14,194l.47-1.16c.25-.58.45-1.17.45-1.17l6.2,2.25,3.58,1.3.3.59.28.59s.09-.2.16-.41l.15-.42,1,.37q.46-1.27.9-2.56l-1-.36.28-.82-1.31.45-2.79-1-5.87-2-1-1.93,2.43-1.1.55.93,2.22.71.37-1.1.31-1.11-4.48-1.35.7-2.4,6.35,1.78,3.67,1,.66,1.13.25-.85,1.09.3q.37-1.3.71-2.62l-1-.27.12-.42.1-.42-.63.28-.65.27-2.85-.74-6-1.54s-.27-.46-.58-.93l-.61-.93,2.29-1.29.64.89,2.27.55.52-2.25-4.57-1,.29-1.22.2-.84c.05-.23.08-.38.08-.38l6.46,1.31,3.73.76.38.54.36.54.11-.43c.06-.21.09-.43.09-.43l1.07.22c.18-.88.35-1.77.51-2.66l-1.08-.2.15-.86-1.23.64-2.9-.53-6.1-1.1-1.31-1.76,2.23-1.44.69.84,2.3.38.2-1.14c.1-.57.16-1.14.16-1.14l-4.63-.68.34-2.48,6.54.83,3.78.48.83,1,.12-.88,1.13.14c.11-.89.21-1.79.31-2.69l-1.06-.12.11-.86-1.2.72-2.93-.32-6.16-.65-.7-.83-.73-.83,2.07-1.61.77.79,2.32.21.18-2.3L279.6,156l.22-2.5,6.58.35,3.81.21.88,1,.08-.88,1.1.06c0-.9.08-1.8.12-2.71l-1.08,0ZM104.71,30.56a131.94,131.94,0,0,1,18-5,124.69,124.69,0,0,1,46.95,0,122.19,122.19,0,0,1,44.15,18,124.09,124.09,0,0,1,35,35,122.21,122.21,0,0,1,18,44.15,123.09,123.09,0,0,1-4.74,64.4c-.62,1.75-1.42,3.89-2,5.32a122.15,122.15,0,0,1-11.25,21.38,124,124,0,0,1-35,35,122.5,122.5,0,0,1-21.38,11.25c-1.4.57-2.94,1.15-4.69,1.78a133.09,133.09,0,0,1-18.09,5A123.27,123.27,0,0,1,100,260.15,122.48,122.48,0,0,1,78.59,248.9a124.06,124.06,0,0,1-35-35,122.19,122.19,0,0,1-18-44.15,123.15,123.15,0,0,1,4.73-64.38c.62-1.74,1.44-3.93,2-5.34A122.29,122.29,0,0,1,43.57,78.63,123,123,0,0,1,100,32.35C101.41,31.77,103,31.18,104.71,30.56Z"/><path d="M151,286.52l-2.05.05-.78.88,0,1.73.77.8,2.1-.05.77-.89-.07-1.73Zm-38.79-280-2,.48-.55,1.07.44,1.67.91.57,1-.24,1-.23.57-1-.4-1.68Zm27.51,279.93c-.51,0-1,0-1,0l-.84.79-.1,1.73.7.88.33,0,.72,0,1.05,0,.84-.85.06-1.73-.71-.82ZM92.29,13l-2,.77-.39,1.14.68,1.59,1,.43,1.91-.75.42-1.08-.64-1.61Zm6.4,265.34-1,.55-.6,1.62.43,1,2,.67,1-.57.55-1.64-.44-1Zm62.59,7.48s-.51.08-1,.11l-1,.08-.71.91.15,1.72.82.76,1-.08c.53,0,1-.11,1-.11l.7-1-.19-1.72ZM102.15,9.4l-2,.67-.48,1.09.57,1.64,1,.52,1.94-.66.49-1.07-.52-1.65Zm16.26,274.47-.47.35-.47.33-.35,1.69.28.48.29.47,2.07.37,1-.72.31-1.7-.58-.92Zm-10-2.43-1,.61-.48,1.66.5,1,2,.58,1-.63.43-1.68-.51-1ZM153.61,2.65l-.72,0-1.05,0-.84.85-.06,1.73.71.82,1,0c.51,0,1,0,1,0l.84-.79.1-1.73-.7-.88ZM8.33,116l.95-.55.46-2-.65-1-1.68-.41-1,.54-.47,2,.67,1ZM143.44,2.53l-2.1.05-.77.89.07,1.73.77.78,2.05-.05.78-.88,0-1.73ZM210.09,271.2l-1.83.94-.33,1.13.76,1.56,1,.39,1.87-1,.32-1.14-.8-1.54Zm25.64-16.89s-.39.34-.8.65l-.81.63-.09,1.16,1.08,1.35,1.1.17.83-.65c.42-.32.82-.66.82-.66l0-1.2-1.11-1.33ZM133,3.1l-1,.08c-.53,0-1,.11-1,.11l-.7,1L130.35,6l.82.7s.51-.08,1-.11l1-.08.71-.91-.15-1.72Zm94.64,257.44-1.67,1.19-.16,1.16,1,1.43,1.08.24,1.71-1.22.15-1.18-1-1.4Zm-8.53,5.68-1.78,1-.25,1.13.87,1.5,1.07.33,1.82-1.05L221,268l-.91-1.47Zm-47.64,18.11-2,.36-.64,1,.28,1.71.87.68,2.07-.37.63-1-.32-1.7Zm10-2.16-1,.24-1,.23-.57,1,.4,1.68.92.63,2-.48.55-1.07-.44-1.67Zm-92.24-7.68-1.07.45-.71,1.58.35,1.06,1.91.87,1.08-.48.67-1.59-.36-1Zm102,4.71-1.94.66-.49,1.07.52,1.65,1,.54,2-.67.48-1.09-.57-1.64Zm9.59-3.61-1.91.75-.42,1.08.64,1.61,1,.48,2-.77.39-1.14-.68-1.59Zm-72.3,9.9-.89.75-.23,1.72.64.91,2.08.27.89-.77.18-1.72-.65-.89ZM9.14,176.47l-.46-2-1-.61L6,174.2l-.67.9.47,2,1,.59,1.69-.38ZM7.3,166.39l-.26-2-.95-.68-1.72.21-.72.85.27,2.08,1,.67,1.71-.26Zm4.41,20-.56-2-1-.53-1.67.46-.58.94.57,2,1.06.52,1.66-.5Zm5.34,16.9-1.58.7L15,205l.87,1.91,1.12.36,1.56-.74.42-1-.85-1.87Zm-2.79-9.11-1.06-.46-1.63.58-.53,1s.17.5.37,1l.39,1,1.11.44,1.61-.62.48-1-.38-1C14.43,194.67,14.27,194.18,14.27,194.18ZM5.48,157l.74-.79-.16-2-.91-.74-1.73.09-.77.79.16,2.1.93.74Zm-2.17-10.3H5l.39-.37.41-.37.05-2.05-.84-.81-1.73,0-.84.74-.05,2.1.43.4Zm19.36,66.17-1.11-.3-1.53.82-.38,1.06s.24.47.51.92l.52.91,1.16.27,1.51-.85.33-1-.51-.89C22.91,213.32,22.67,212.86,22.67,212.86ZM80,270l-1.11.39L78,271.89l.28,1.07,1.87,1,1.12-.41.79-1.54-.29-1ZM42,48.56H40.86l-.73.76c-.37.37-.7.78-.7.78l.12,1.19,1.29,1.15,1.08,0s.32-.4.69-.76l.71-.74-.08-1.16Zm7.4-7.36-1.1-.08-1.52,1.45,0,1.19L48,45l1.09.07,1.49-1.42V42.46Zm-44,95.19.86-.68.16-2-.79-.87-1.72-.16L3,133.3l-.16,2.1.81.87Zm1.07-10.25.89-.62s0-.51.15-1l.18-1-.7-.92-1.71-.29-.94.61-.19,1c-.1.52-.16,1-.16,1l.76.93Zm48.2,126.44-1.16.13L52.4,254l0,1.11L54,256.48l1.17-.14,1.1-1.33,0-1.1ZM56.21,34.23l-.83.65c-.42.32-.82.66-.82.66l0,1.2,1.11,1.33,1.07.13s.39-.34.8-.65l.81-.63.09-1.16-1.08-1.35ZM46,245.65l-1.23,1.22L44.7,248l1.52,1.45,1.19-.07,1.2-1.25,0-1.09-1.49-1.42ZM82.71,17.29l-1.87,1-.32,1.14.8,1.54,1,.38,1.83-.94.33-1.13-.76-1.56ZM71.14,264.78l-1.13.29-.94,1.46.19,1.1L71,268.77l1.13-.31.9-1.48-.2-1.08ZM62.68,259l-.58.11-.57.1-1,1.38.05.56.06.55,1.71,1.22,1.17-.24,1-1.41-.14-1.08ZM26.76,221.47l-1.46.92L25,223.47l1.13,1.77,1.16.19,1.44-1,.27-1.07-1.11-1.73ZM73.48,22.29l-1.82,1.05-.22,1.18L72.34,26l1,.28,1.78-1,.25-1.13-.87-1.5ZM32.57,230l-1.39,1-.22,1.1,1.29,1.66,1.19.1,1.37-1.06.18-1.07-1.27-1.61ZM64.63,27.94l-1.71,1.22-.15,1.18,1,1.4,1.07.22,1.67-1.19.16-1.16-1-1.43ZM39,238.05l-1.31,1.13-.13,1.1,1.38,1.59,1.18,0,1.28-1.16.11-1.09-1.34-1.55ZM122.54,4.45l-2.07.37-.63,1,.32,1.7.87.66,2-.36.64-1-.28-1.71ZM238.42,36l-1.17.14-1.1,1.33,0,1.1,1.55,1.34,1.16-.13,1.14-1.3,0-1.11Zm6.6,7.12-1.2,1.25,0,1.09,1.49,1.42,1.16,0,1.23-1.22.06-1.12-1.52-1.45ZM231.84,30.81l-1.71-1.22-1.17.24-1,1.41.14,1.08,1.67,1.19.58-.11.57-.1,1-1.38-.05-.56Zm37.93,48.84,1.11.3,1.53-.82.38-1.06s-.24-.47-.51-.92l-.52-.91L270.59,76l-1.51.85-.33,1,.51.89C269.53,79.19,269.77,79.64,269.77,79.64ZM28.84,64.77l-1.11.15-.61.86c-.3.43-.57.88-.57.88l.29,1.16,1.44,1,1.07-.18.56-.86.6-.84-.24-1.13ZM212.26,18.59l-1.12.41-.79,1.54.29,1,1.83.94,1.11-.39.83-1.52-.28-1.07Zm9.15,5.16-1.13.31-.9,1.48.2,1.08,1.73,1.11,1.13-.29.94-1.46-.19-1.1Zm54,65.47,1.58-.7.44-1-.87-1.91-1.12-.36-1.56.74-.42,1,.85,1.87Zm2.79,9.11,1.06.46,1.63-.58.53-1s-.17-.5-.37-1l-.39-1-1.11-.44-1.61.62-.48,1,.38,1C278,97.84,278.17,98.33,278.17,98.33ZM10.91,106l1-.48.28-1,.33-1-.56-1L10.28,102l-1,.46-.34,1-.29,1,.62,1Zm274.23,20.11.26,2,.95.68,1.72-.21.72-.85-.27-2.08-1-.67-1.71.26ZM283.29,116l.46,2,1,.61,1.7-.34.67-.9-.47-2-1-.59-1.69.38Zm6.28,30.18-.45-.4H287.4l-.39.37-.41.37-.05,2.05.84.81,1.73,0,.84-.74.05-2.1ZM24.67,74.43l-1.49-.88-1.08.24-1,1.82.36,1.13,1.51.84L24,77.33l1-1.78Zm256.05,31.69.56,2,1,.53,1.67-.46.58-.94-.58-2-1.06-.52-1.66.5ZM35.11,56.42,34,56.5l-1.3,1.65.19,1.17,1.37,1.06,1.09-.09,1.27-1.61-.18-1.16Zm-15,28.15-.41-1.08-1.55-.77L17.11,83l-.48.93-.43,1L16.66,86l1.57.73,1-.33.42-.93ZM287,135.52l-.74.79.16,2,.91.74L289,139l.77-.79-.16-2.1-.93-.74ZM14.21,96.24l1-.4L16,93.94l-.5-1.06-1.6-.66-1,.39-.77,2,.52,1.06Zm271.74,70.14-.89.62s0,.51-.15,1l-.18,1,.7.92,1.71.29.94-.61.19-1c.1-.52.16-1,.16-1l-.76-.93Zm-16.44,48.55-1.07.25-1,1.78.34,1.12,1.49.88,1.08-.24,1-1.82-.36-1.13ZM174.76,5.31l-2.07-.37-1,.72-.31,1.7.58.92,2,.36.47-.35L175,8l.35-1.69L175,5.78Zm89.4,218.43-1.07.18-.56.86-.6.84.24,1.13,1.42,1,1.11-.15.61-.86c.3-.43.57-.88.57-.88l-.29-1.16ZM287,156.13l-.86.68-.16,2,.79.87,1.72.16.87-.67.16-2.1-.81-.87ZM182.94,7.23l-1,.63-.43,1.68.51,1,2,.56,1-.61.48-1.66-.5-1Zm75.23,224.91-1.09.09-1.27,1.61L256,235l1.34,1.09,1.1-.08,1.3-1.65-.19-1.17Zm20.06-35.87-1,.4-.75,1.91.5,1.06,1.6.66,1-.39.77-2-.52-1.06Zm3.3-9.76-1,.48-.28,1-.33,1,.56,1,1.65.54,1-.46.34-1,.29-1-.62-1Zm2.58-10-.95.55-.46,2,.65,1,1.68.41,1-.54.47-2-.67-1ZM251.6,240.08l-1.08,0s-.32.4-.69.76l-.71.74.08,1.16,1.26,1.18h1.12l.73-.76c.37-.37.7-.78.7-.78l-.12-1.19Zm-7.14,7.44-1.09-.07-1.49,1.42V250l1.17,1.27,1.1.08,1.52-1.45,0-1.19Zm7.86-196.91L251,51.77l-.11,1.09,1.34,1.55,1.17,0,1.31-1.13.13-1.1-1.38-1.59ZM202.78,14.07l-1.08.48L201,16.14l.36,1,1.87.85,1.07-.45L205,16l-.35-1.06ZM259,58.63l-1.37,1.06-.18,1.07,1.27,1.61,1.15.13,1.39-1,.22-1.1-1.29-1.66Zm15.21,147.13-1,.33-.42.93-.47.91.41,1.08,1.55.77,1.08-.31.48-.93.43-1-.46-1.11ZM193,10.31l-1,.57-.56,1.64.44,1,1.94.66,1-.55.6-1.62L195,11Zm73.32,57-1.16-.19-1.44,1-.27,1.07,1.11,1.73,1.15.21,1.46-.92.29-1.07Zm-104-63.89-.89.77-.18,1.72.65.89,2,.26.89-.75L165,4.56l-.64-.91Z"/><path d="M50.48,106.43H31.76a121,121,0,0,0-6.69,38.95H50.48Zm94.87-81.33a121.12,121.12,0,0,0-38.9,6.67V50.59h38.9ZM106.45,186h2.83c36-1.23,36-19.93,36-39.73,0-16.89,0-34.32,23.78-39.86H146.61l-40.16,40.16ZM186,104.64V85.43H147.09v19.26h36.4ZM104.71,32.41c-1.59.57-2.87,1.06-4.08,1.55a120.5,120.5,0,0,0-20.46,10.7l24.54,56.7ZM44.63,80.2a120.72,120.72,0,0,0-10.7,20.46c-.48,1.18-1,2.44-1.53,4h69ZM78.69,45.64A121.92,121.92,0,0,0,45.61,78.73l58.3,25.17Zm66.66,6.69h-38.9v52.36h38.9ZM246.93,78.87A122,122,0,0,0,213.6,45.54L187.78,84.7v20h20ZM260,104.69c-.57-1.59-1.05-2.85-1.53-4a120.7,120.7,0,0,0-10.62-20.34l-37,24.38ZM191.81,34c-1.18-.48-2.44-1-4-1.53V81.54l24.37-37A120.42,120.42,0,0,0,191.81,34ZM186,31.8a121.08,121.08,0,0,0-38.95-6.69V83.69H186Zm22.74,113.55,58.59,0a120.94,120.94,0,0,0-6.69-38.95h-51.9Zm-61.69,94.9H186V187.76H147.09Zm93-54.23V147.11l-52.87,0-38.92,39ZM207,106.43H187.78v38.9H207ZM83.57,147.11l-58.5,0A121,121,0,0,0,31.74,186H83.57Zm130.17,99.76a121.84,121.84,0,0,0,33.09-33.09l-58.26-25.22Zm-26,13.21c1.58-.57,2.85-1.05,4-1.53a120.38,120.38,0,0,0,20.46-10.7l-24.5-56.74ZM147.09,242v25.4A120.68,120.68,0,0,0,186,260.71V242Zm94.79-56H260.7a121,121,0,0,0,6.67-38.9l-25.49,0ZM186,106.43h-2.68C147,107.65,147,126.42,147,146.29c0,16.83,0,34.2-23.61,39.73h22.45L186,145.84Zm61.77,105.87a120.68,120.68,0,0,0,10.7-20.46c.49-1.2,1-2.48,1.55-4.08H191.12ZM106.45,260.73a120.7,120.7,0,0,0,38.9,6.66v-58.5h-38.9Zm0-72.91v19.33h38.9V187.76H109.27C108.37,187.8,107.42,187.81,106.45,187.82ZM85.32,186h19.39V147.1H85.32Zm15.31,72.52c1.2.49,2.51,1,4.08,1.55V210.84L80.28,247.92A120.44,120.44,0,0,0,100.63,258.54Zm-55.12-44.9A121.94,121.94,0,0,0,78.83,247l25.88-39.28V187.76H84.78ZM32.38,187.76c.58,1.6,1.06,2.88,1.55,4.08a120.7,120.7,0,0,0,10.62,20.34l37.07-24.42Zm19.84-81.33v38.94l53,0,38.93-38.92Z"/></symbol></defs><title>1056</title><use width="292.44" height="292.51" xlink:href="#_1056_outline_cleaned"/></svg>