<?xml version="1.0" encoding="utf-8"?>
<!-- Generator: Adobe Illustrator 25.2.1, SVG Export Plug-In . SVG Version: 6.00 Build 0)  -->
<svg version="1.1" id="Layer_1" xmlns="http://www.w3.org/2000/svg" xmlns:xlink="http://www.w3.org/1999/xlink" x="0px" y="0px"
	 viewBox="0 0 292.4 292.5" style="enable-background:new 0 0 292.4 292.5;" xml:space="preserve">
<style type="text/css">
	.st0{opacity:0.2;}
	.st1{opacity:0.5;}
</style>
<g class="st0">
	<path d="M106.4,186h2.8c36-1.2,36-19.9,36-39.7c0-16.9,0-34.3,23.8-39.9h-22.5l-40.2,40.2V186z"/>
	<path d="M186,104.6V85.4h-38.9v19.3h36.4C184.3,104.7,185.1,104.6,186,104.6"/>
	<rect x="106.4" y="52.3" width="38.9" height="52.4"/>
	<path d="M186,106.4h-2.7c-36.3,1.2-36.3,20-36.3,39.9c0,16.8,0,34.2-23.6,39.7h22.4l40.2-40.2V106.4z"/>
	<rect x="85.3" y="147.1" width="19.4" height="38.9"/>
	<polygon points="52.2,106.4 52.2,145.4 105.2,145.4 144.1,106.4 	"/>
</g>
<g>
	<path d="M57.8,109.5H40.5c-1.7,5-3.1,10.2-4.1,15.4c-1.3,6.7-2,13.7-2,20.6l23.5,0V109.5z"/>
	<path d="M145.4,34.4c-6.9,0-13.8,0.7-20.6,2c-5.2,1-10.4,2.4-15.4,4.1v17.4h35.9V34.4z"/>
	<path d="M107.9,41.1c-1.5,0.5-2.7,1-3.8,1.4c-6.6,2.7-12.9,6-18.9,9.9l22.7,52.4V41.1z"/>
	<path d="M52.4,85.3c-3.9,6-7.2,12.3-9.9,18.9c-0.4,1.1-0.9,2.3-1.4,3.7h63.7L52.4,85.3z"/>
	<path d="M83.9,53.4c-6,4-11.6,8.7-16.8,13.8c-5.1,5.1-9.8,10.7-13.8,16.8l53.8,23.2L83.9,53.4z"/>
	<path d="M239.2,84c-4.1-6.1-8.7-11.7-13.9-16.9c-5.2-5.2-10.8-9.8-16.9-13.9l-23.8,36.2v18.5H203L239.2,84z"/>
	<path d="M251.3,107.9c-0.5-1.5-1-2.6-1.4-3.7c-2.6-6.5-5.9-12.8-9.8-18.8l-34.1,22.5H251.3z"/>
	<path d="M188.3,42.6c-1.1-0.4-2.3-0.9-3.7-1.4v45.3l22.5-34.1C201.1,48.5,194.8,45.2,188.3,42.6"/>
	<path d="M183,40.6c-5-1.7-10.2-3.1-15.4-4.1c-6.7-1.3-13.6-2-20.6-2v54.1h36V40.6z"/>
	<path d="M204,145.4l54.1,0c0-6.9-0.7-13.8-2-20.6c-1-5.2-2.4-10.4-4.1-15.4H204V145.4z"/>
	<rect x="147" y="184.6" width="36" height="48.5"/>
	<polygon points="232.9,183 232.9,147 184.1,147 148.2,183 	"/>
	<polygon points="202.4,109.5 184.6,109.5 184.6,145.4 202.4,145.4 	"/>
	<path d="M88.4,147l-54,0c0,6.9,0.7,13.8,2,20.6c1,5.2,2.4,10.3,4.1,15.4h47.9V147z"/>
	<path d="M208.5,239.1c6-4,11.6-8.7,16.8-13.8c5.1-5.1,9.8-10.7,13.8-16.8l-53.8-23.3L208.5,239.1z"/>
	<path d="M184.6,251.3c1.5-0.5,2.6-1,3.7-1.4c6.6-2.7,12.9-6,18.9-9.9l-22.6-52.4L184.6,251.3z"/>
	<path d="M147,234.6v23.5c6.9,0,13.9-0.7,20.6-2c5.2-1,10.4-2.4,15.4-4.1l0-17.3H147z"/>
	<path d="M234.5,183h17.4c1.7-5,3.1-10.2,4.1-15.4c1.3-6.7,2-13.7,2-20.6l-23.5,0V183z"/>
	<path d="M240,207.2c3.9-6,7.2-12.3,9.9-18.9c0.5-1.1,0.9-2.3,1.4-3.8h-63.7L240,207.2z"/>
	<path d="M109.5,251.9c5,1.7,10.2,3.1,15.4,4.1c6.7,1.3,13.6,2,20.6,2v-54h-35.9V251.9z"/>
	<path d="M109.5,184.6v17.8h35.9v-17.9h-33.3C111.3,184.6,110.4,184.6,109.5,184.6"/>
	<path d="M104.1,249.9c1.1,0.4,2.3,0.9,3.8,1.4v-45.5l-22.6,34.2C91.3,244,97.6,247.3,104.1,249.9"/>
	<path d="M53.2,208.5c4.1,6.1,8.7,11.7,13.9,16.9c5.2,5.2,10.8,9.8,16.9,13.9l23.9-36.3v-18.4H89.5L53.2,208.5z"/>
	<path d="M41.1,184.6c0.5,1.5,1,2.7,1.4,3.8c2.6,6.5,5.9,12.8,9.8,18.8l34.2-22.5H41.1z"/>
</g>
<path class="st1" d="M280.2,150.3l-1,0.7l-2.7-0.1l-5.7-0.2l-1.4-1.4l1.8-1.6l0.7,0.7l2.2,0l0.1-2.1h-4.3l0-2.3l6.1-0.1l3.5-0.1
	l0.9,0.8l0-0.8l1,0c0-0.8,0-1.7-0.1-2.5l-1,0l0-0.8l-1,0.8l-2.7,0.1l-5.7,0.2l-1.5-1.3c0,0,0.4-0.4,0.9-0.9c0.4-0.4,0.8-0.9,0.8-0.9
	l0.8,0.6l2.1-0.1l-0.2-2.1l-4.3,0.3l-0.2-2.3l6.1-0.6l3.5-0.3l0.9,0.8l-0.1-0.8l1-0.1c-0.1-0.8-0.2-1.7-0.2-2.5l-1,0.1l-0.1-0.8
	l-0.9,0.9l-2.7,0.3l-5.7,0.6l-1.6-1.2l1.6-1.9l0.8,0.6l2.1-0.3l-0.3-2.1l-4.3,0.6c0,0,0-0.1,0-0.4c0-0.2-0.1-0.5-0.1-0.8
	c-0.1-0.6-0.2-1.1-0.2-1.1l6-1l3.5-0.6l1,0.7l-0.1-0.8l1-0.2c-0.1-0.8-0.3-1.6-0.4-2.5l-1,0.2l-0.1-0.8l-0.9,1l-2.7,0.5l-5.6,1.1
	l-1.7-1.1c0,0,0.4-0.5,0.7-1c0.4-0.5,0.7-1,0.7-1l0.9,0.5l2.1-0.4l-0.5-2.1l-4.2,0.9l-0.5-2.3l5.9-1.4l3.4-0.8l1,0.6l-0.2-0.8l1-0.2
	c-0.2-0.8-0.4-1.6-0.6-2.4l-1,0.2l-0.2-0.8l-0.8,1l-2.6,0.7l-5.5,1.5l-1.8-1l1.3-2.1l0.9,0.4l2.1-0.6l-0.6-2.1l-4.1,1.2
	c0,0-0.2-0.6-0.3-1.1c-0.2-0.5-0.4-1.1-0.4-1.1l5.8-1.9l3.3-1.1l1.1,0.5l-0.3-0.8l1-0.3c-0.3-0.8-0.5-1.6-0.8-2.4l-1,0.3l-0.3-0.8
	l-0.7,1.1l-2.6,0.9l-5.4,1.9l-1.8-0.8c0,0,0.3-0.5,0.6-1.1c0.3-0.5,0.6-1.1,0.6-1.1s0.2,0.1,0.5,0.2c0.2,0.1,0.5,0.2,0.5,0.2l2-0.7
	c0,0,0-0.1-0.1-0.3c-0.1-0.2-0.2-0.4-0.3-0.7c-0.2-0.5-0.4-1-0.4-1l-4,1.5l-0.8-2.2l5.6-2.3l3.3-1.3l1.1,0.5l-0.3-0.8l1-0.4
	c-0.3-0.8-0.6-1.5-1-2.3l-0.9,0.4l-0.3-0.7l-0.6,1.1l-2.5,1.1l-5.3,2.3l-1.9-0.7l1-2.2l1,0.3l2-0.9l-0.9-1.9l-3.9,1.8l-0.5-1.1
	l-0.5-1l5.5-2.7l3.2-1.6l1.2,0.4l-0.4-0.7l0.9-0.5c-0.4-0.7-0.7-1.5-1.1-2.2l-0.9,0.5l-0.4-0.7l-0.5,1.2l-2.4,1.2l-5.1,2.6l-1.9-0.6
	c0,0,0.2-0.6,0.4-1.2c0.2-0.6,0.4-1.2,0.4-1.2s0.3,0.1,0.5,0.1c0.2,0.1,0.5,0.1,0.5,0.1l1.9-1c0,0-0.3-0.5-0.5-0.9
	c-0.3-0.5-0.5-0.9-0.5-0.9l-3.8,2.1l-1.1-2l5.2-3.1l3-1.8l1.2,0.3l-0.4-0.7l0.9-0.5c-0.4-0.7-0.8-1.4-1.3-2.1l-0.8,0.5l-0.4-0.7
	l-0.4,1.2l-2.3,1.4l-4.9,3l-2-0.4l0.6-2.4l1,0.1l1.8-1.2l-1.2-1.8l-3.6,2.4c0,0-0.3-0.5-0.6-1c-0.3-0.5-0.7-0.9-0.7-0.9l5-3.5l2.9-2
	L257,71l-0.5-0.7l0.8-0.6c-0.5-0.7-1-1.4-1.4-2l-0.8,0.6l-0.5-0.7l-0.4,1.2l-2.2,1.6l-4.6,3.4l-2-0.3c0,0,0.1-0.6,0.2-1.2
	c0.1-0.6,0.2-1.2,0.2-1.2l1,0.1l1.7-1.3l-1.3-1.7l-3.4,2.6l-1.4-1.8l4.7-3.8L250,63l1.2,0.1l-0.5-0.6l0.8-0.6
	c-0.5-0.6-1-1.3-1.6-1.9l-0.8,0.6l-0.5-0.6l-0.3,1.2l-2.1,1.7l-4.4,3.7l-2-0.1l0.3-2.4l1,0l1.6-1.4l-1.4-1.6l-3.2,2.9
	c0,0-0.4-0.5-0.8-0.9c-0.4-0.4-0.8-0.8-0.8-0.8L241,58l2.6-2.4l1.2,0l-0.6-0.6l0.7-0.7c-0.6-0.6-1.1-1.2-1.7-1.8l-0.7,0.7l-0.6-0.6
	l-0.2,1.3l-2,1.9l-4.1,4l-2,0c0,0,0-0.6,0.1-1.2l0-1.2l1-0.1l1.5-1.5l-1.5-1.5l-3,3.1l-1.7-1.6l4.1-4.5l2.4-2.6l1.2-0.1l-0.6-0.6
	l0.7-0.8c-0.6-0.6-1.2-1.1-1.8-1.7l-0.7,0.7l-0.6-0.5l-0.1,1.3l-1.8,2l-3.8,4.3l-2,0.2l-0.1-2.4l1-0.1l1.4-1.6l-1.6-1.4l-2.8,3.3
	c0,0-0.4-0.4-0.9-0.7c-0.5-0.4-0.9-0.7-0.9-0.7l3.8-4.7l2.2-2.7l1.2-0.2l-0.6-0.5l0.6-0.8c-0.7-0.5-1.3-1-2-1.5l-0.6,0.8l-0.6-0.5
	l0,1.3l-1.7,2.2l-3.5,4.5l-2,0.3c0,0,0-0.6-0.1-1.2l-0.1-1.2l1-0.2l1.3-1.7l-1.7-1.2l-2.5,3.5l-1.9-1.4l3.5-5l2-2.9l1.2-0.2
	l-0.7-0.5l0.6-0.8c-0.7-0.5-1.4-0.9-2.1-1.4l-0.6,0.8l-0.7-0.4l0.1,1.3l-1.5,2.3l-3.1,4.8l-2,0.5l-0.4-2.4l1-0.3l1.2-1.8l-1.8-1.2
	l-2.3,3.7c0,0-0.1-0.1-0.3-0.2c-0.2-0.1-0.4-0.3-0.7-0.4c-0.5-0.3-1-0.6-1-0.6l3.1-5.2l1.8-3l1.2-0.3l-0.7-0.4l0.5-0.9
	c-0.7-0.4-1.4-0.8-2.2-1.2l-0.5,0.9L211,29l0.2,1.3l-1.3,2.4l-2.8,5l-1.9,0.6c0,0-0.1-0.6-0.3-1.2l-0.3-1.2l1-0.4l1-1.9l-1.9-1
	l-2,3.8l-2-1.1l2.7-5.5l1.6-3.2l1.1-0.4l-0.7-0.4l0.4-0.9c-0.7-0.4-1.5-0.7-2.3-1.1l-0.4,0.9l-0.7-0.3l0.3,1.2l-1.2,2.5l-2.4,5.2
	l-1.9,0.8l-0.8-2.3l0.9-0.4l0.9-2l-1.9-0.9l-1.7,4c0,0-0.1-0.1-0.3-0.2c-0.2-0.1-0.5-0.2-0.7-0.3c-0.5-0.2-1.1-0.4-1.1-0.4l2.3-5.6
	l1.3-3.3l1.1-0.5l-0.8-0.3l0.4-1c-0.8-0.3-1.5-0.6-2.3-0.9L194,21l-0.7-0.3l0.4,1.2l-1,2.5l-2,5.4l-1.8,0.9c0,0-0.2-0.6-0.5-1.1
	l-0.5-1.1l0.9-0.5l0.7-2l-2-0.7l-1.4,4.1l-2.2-0.8l1.9-5.8l1.1-3.3l1.1-0.6l-0.8-0.3l0.3-1c-0.8-0.3-1.6-0.5-2.4-0.7l-0.3,0.9
	l-0.8-0.2l0.5,1.2l-0.8,2.6l-1.6,5.5l-1.8,1l-1.1-2.2l0.8-0.6l0.6-2.1l-2.1-0.6l-1.1,4.2c0,0-0.6-0.2-1.1-0.3
	c-0.6-0.1-1.1-0.3-1.1-0.3l1.4-5.9l0.8-3.4l1-0.7l-0.8-0.2l0.2-1c-0.8-0.2-1.6-0.4-2.4-0.6l-0.2,1l-0.8-0.2l0.5,1.2l-0.6,2.7
	l-1.2,5.6l-1.7,1.1c0,0-0.3-0.5-0.6-1.1c-0.3-0.5-0.6-1-0.6-1l0.8-0.6l0.4-2.1l-2.1-0.4l-0.8,4.2l-2.3-0.4l1-6l0.6-3.5l1-0.7
	l-0.8-0.2l0.2-1c-0.8-0.1-1.6-0.3-2.5-0.4l-0.1,1l-0.8-0.1l0.6,1.1l-0.4,2.7l-0.8,5.7l-1.6,1.3l-1.4-2l0.8-0.7l0.3-2.1l-2.1-0.3
	l-0.5,4.3c0,0-0.6-0.1-1.1-0.1c-0.6,0-1.2-0.1-1.2-0.1l0.5-6.1l0.3-3.5l0.9-0.8l-0.8-0.1l0.1-1c-0.8-0.1-1.7-0.1-2.5-0.2l-0.1,1
	l-0.8-0.1l0.7,1.1l-0.2,2.7l-0.4,5.7l-1.5,1.4c0,0-0.4-0.5-0.8-1c-0.4-0.5-0.8-0.9-0.8-0.9s0.2-0.2,0.4-0.4c0.2-0.2,0.4-0.4,0.4-0.4
	l0.1-2.1c0,0-0.1,0-0.3,0c-0.2,0-0.5,0-0.7,0c-0.5,0-1.1,0-1.1,0l-0.2,4.3l-2.3-0.1l0.1-6.1l0.1-3.5l0.9-0.9l-0.8,0l0-1
	c-0.8,0-1.6,0-2.4,0c0,0,0,0-0.1,0l0,1l-0.8,0l0.8,1l0,2.7l0,5.7l-1.4,1.5l-1.7-1.8l0.6-0.8l0-2.2l-2.1,0.1l0.2,4.3l-1.2,0
	c-0.6,0-1.2,0-1.2,0l-0.3-6.1l-0.2-3.5c0,0,0.2-0.2,0.4-0.5c0.2-0.2,0.4-0.5,0.4-0.5s-0.2,0-0.4,0c-0.2,0-0.4,0-0.4,0l-0.1-1
	c-0.8,0-1.7,0.1-2.5,0.2l0.1,1l-0.8,0.1l0.9,1l0.2,2.7L137,22l-1.3,1.6l-1.8-1.7l0.6-0.8l-0.2-2.1c0,0-0.5,0-1.1,0.1
	c-0.5,0.1-1.1,0.1-1.1,0.1l0.5,4.3l-2.3,0.3l-0.8-6l-0.4-3.5l0.7-1l-0.8,0.1l-0.1-1c-0.8,0.1-1.7,0.2-2.5,0.3l0.1,1l-0.8,0.1
	l0.9,0.9l0.4,2.7L128,23l-0.6,0.8l-0.6,0.8l-1.9-1.5l0.5-0.9l-0.4-2.1l-2.1,0.4l0.8,4.2l-2.3,0.4l-1.2-6l-0.7-3.4l0.7-1l-0.8,0.1
	l-0.2-1c-0.8,0.2-1.6,0.3-2.4,0.5l0.2,1l-0.8,0.2l1,0.8l0.6,2.7l1.3,5.6l-1,1.8l-2-1.4l0.5-0.9l-0.5-2.1c0,0-0.5,0.1-1,0.2
	c-0.5,0.1-1,0.3-1,0.3l1.1,4.2l-2.2,0.6l-1.7-5.9l-1-3.4l0.6-1.1l-0.8,0.2l-0.3-1c-0.8,0.2-1.6,0.5-2.4,0.7l0.3,1l-0.8,0.2l1,0.8
	l0.8,2.6l1.7,5.5c0,0-0.2,0.4-0.5,0.9c-0.2,0.4-0.4,0.9-0.4,0.9l-2.1-1.2l0.4-0.9l-0.7-2l-2,0.7l1.4,4.1l-2.2,0.7l-2.1-5.7l-1.2-3.3
	l0.5-1.1l-0.8,0.3l-0.3-1c-0.8,0.3-1.6,0.6-2.3,0.9l0.4,0.9l-0.7,0.3l1.1,0.7l1,2.5l2.1,5.3l-0.8,1.9l-2.2-1.1l0.3-0.9l-0.8-2
	c0,0-0.5,0.2-1,0.4c-0.2,0.1-0.5,0.2-0.7,0.3c-0.2,0.1-0.3,0.1-0.3,0.1l1.7,4l-2.1,0.9L93.3,28l-1.4-3.2l0.4-1.1l-0.7,0.3l-0.4-1
	c-0.8,0.3-1.5,0.7-2.3,1l0.4,0.9l-0.7,0.3l1.1,0.6l1.2,2.5l2.5,5.2c0,0-0.2,0.5-0.3,1c-0.2,0.5-0.3,1-0.3,1l-2.3-0.9l0.3-1l-1-1.9
	l-1.9,1l2,3.8l-2.1,1l-2.9-5.4L83.2,29l0.3-1.2l-0.7,0.4l-0.5-0.9c-0.7,0.4-1.5,0.8-2.2,1.2l0.5,0.9l-0.7,0.4l1.2,0.5l1.3,2.4l2.8,5
	l-0.5,2l-2.3-0.7l0.2-1l-1.1-1.9c0,0-0.5,0.3-0.9,0.5c-0.5,0.3-0.9,0.5-0.9,0.5l2.3,3.7l-2,1.2l-3.3-5.1l-1.9-3l0.2-1.2l-0.7,0.4
	l-0.6-0.9c-0.7,0.4-1.4,0.9-2.1,1.4l0.5,0.8L71.5,35l1.2,0.4l1.5,2.3l3.2,4.8c0,0-0.1,0.5-0.2,1c-0.1,0.5-0.2,1-0.2,1l-2.4-0.5
	l0.1-1l-1.2-1.8l-1.7,1.2l2.5,3.5l-1.9,1.3l-3.6-4.9l-2.1-2.8l0.2-1.2l-0.7,0.5l-0.6-0.8c-0.7,0.5-1.3,1-2,1.5l0.6,0.8l-0.6,0.5
	l1.2,0.3l1.7,2.1l3.5,4.5l-0.2,2l-2.4-0.4l0-1l-1.4-1.7c0,0-0.4,0.3-0.8,0.7c-0.4,0.3-0.8,0.7-0.8,0.7l2.8,3.3l-1.8,1.5l-4-4.6
	l-2.3-2.7l0.1-1.2l-0.6,0.5L58,44.1c-0.6,0.5-1.3,1.1-1.9,1.7l0.7,0.7L56.1,47l1.3,0.2l1.8,2l3.8,4.2c0,0,0,0.5,0,1c0,0.5,0,1,0,1
	l-2.4-0.2l0-1l-1.5-1.6l-1.5,1.5l3,3.1L58.9,59l-4.3-4.3l-2.5-2.5l0-1.2l-0.6,0.6l-0.7-0.7c-0.6,0.6-1.2,1.2-1.7,1.8l0.7,0.7
	l-0.6,0.6l1.3,0.1l2,1.9l4.1,4l0.1,2l-2.5,0l-0.1-1l-1.6-1.5c0,0-0.4,0.4-0.7,0.8c-0.4,0.4-0.7,0.8-0.7,0.8l3.2,2.9l-1.5,1.7l-4.6-4
	l-2.7-2.3l-0.1-1.2l-0.5,0.6L44,58.1c-0.5,0.6-1.1,1.3-1.6,1.9l0.8,0.6c0,0-0.1,0.2-0.3,0.3c-0.1,0.1-0.3,0.3-0.3,0.3l1.3,0L46,63
	l4.4,3.6l0.1,1c0.1,0.5,0.1,1,0.1,1l-2.4,0.2l-0.2-1l-1.7-1.3l-1.3,1.7l3.4,2.6l-0.7,0.9c-0.2,0.2-0.4,0.5-0.5,0.6
	c-0.1,0.2-0.2,0.3-0.2,0.3L42.2,69l-2.8-2.1c0,0-0.1-0.3-0.1-0.6c0-0.3-0.1-0.6-0.1-0.6L38.9,66c-0.1,0.2-0.2,0.3-0.2,0.3l-0.8-0.6
	c-0.5,0.7-1,1.3-1.5,2l0.8,0.6L36.7,69l1.3,0l2.2,1.6l4.7,3.3l0.4,2l-2.4,0.3l-0.2-1L40.8,74c0,0-0.3,0.4-0.6,0.9l-0.6,0.9l3.6,2.4
	L42,80.1l-5.1-3.3l-3-1.9l-0.3-1.2l-0.5,0.7l-0.9-0.6c-0.4,0.7-0.9,1.4-1.3,2.1l0.8,0.5l-0.2,0.3c-0.1,0.2-0.2,0.3-0.2,0.3
	s0.3,0,0.6-0.1c0.3,0,0.6-0.1,0.6-0.1l2.3,1.4l4.9,3c0,0,0.1,0.5,0.3,1c0.1,0.5,0.3,1,0.3,1L38,83.9l-0.3-1l-1.9-1.1l-1.1,1.8
	l3.8,2.1c0,0-0.3,0.5-0.6,1c-0.3,0.5-0.6,1-0.6,1L32,85l-3.1-1.7c0,0-0.1-0.3-0.2-0.6l-0.2-0.6c0,0-0.1,0.2-0.2,0.4
	c-0.1,0.2-0.2,0.4-0.2,0.4l-0.9-0.5c-0.4,0.7-0.8,1.5-1.2,2.2L27,85l-0.4,0.7l1.3-0.2l2.4,1.2l5.1,2.6l0.7,1.9L33.7,92L33.3,91
	l-1.9-0.9c0,0-0.3,0.5-0.5,1c-0.2,0.5-0.4,1-0.4,1l3.9,1.8l-1,2.1l-5.6-2.5L24.7,92l-0.5-1.1l-0.3,0.7l-1-0.4
	c-0.3,0.8-0.7,1.5-1,2.3l0.9,0.4c0,0-0.1,0.2-0.2,0.4c-0.1,0.2-0.1,0.4-0.1,0.4l1.2-0.3l2.5,1.1l5.3,2.2c0,0,0.2,0.5,0.4,0.9
	c0.2,0.5,0.4,0.9,0.4,0.9l-2.3,0.9l-0.5-0.9l-2-0.8l-0.8,2l4,1.5c0,0-0.2,0.5-0.4,1.1c-0.2,0.5-0.4,1.1-0.4,1.1l-5.7-2.1L21,101
	c0,0-0.1-0.3-0.3-0.5l-0.3-0.5c0,0-0.1,0.2-0.2,0.4c-0.1,0.2-0.1,0.4-0.1,0.4l-1-0.3c-0.3,0.8-0.6,1.6-0.8,2.4l1,0.3l-0.3,0.8
	l1.2-0.4l2.6,0.9l5.4,1.8l1,1.8l-2.2,1l-0.5-0.9l-2.1-0.7c0,0-0.2,0.5-0.3,1c-0.1,0.5-0.3,1-0.3,1l4.1,1.2l-0.6,2.2l-5.9-1.6l-3.4-1
	l-0.6-1l-0.2,0.8l-1-0.3c-0.2,0.8-0.4,1.6-0.7,2.4l0.9,0.3c0,0-0.1,0.2-0.1,0.4c0,0.2-0.1,0.4-0.1,0.4s0.3-0.1,0.6-0.3
	c0.3-0.1,0.6-0.2,0.6-0.2l2.6,0.7l5.5,1.4c0,0,0.3,0.4,0.5,0.9c0.3,0.4,0.6,0.9,0.6,0.9l-2.1,1.2l-0.6-0.8l-2.1-0.5l-0.5,2.1
	l4.2,0.9c0,0-0.1,0.6-0.3,1.1c-0.1,0.3-0.1,0.6-0.2,0.8c-0.1,0.2-0.1,0.4-0.1,0.4l-6-1.2l-3.4-0.7c0,0-0.2-0.2-0.3-0.5l-0.3-0.5
	l-0.1,0.4c-0.1,0.2-0.1,0.4-0.1,0.4l-1-0.2c-0.2,0.8-0.3,1.6-0.5,2.5l1,0.2l-0.1,0.8l1.1-0.6l2.7,0.5l5.6,1l1.2,1.6l-2.1,1.3
	l-0.6-0.8l-2.1-0.3l-0.2,1c-0.1,0.5-0.1,1.1-0.1,1.1l4.3,0.6l-0.3,2.3l-6-0.8l-3.5-0.4l-0.8-0.9l-0.1,0.8l-1-0.1
	c-0.1,0.8-0.2,1.7-0.3,2.5l1,0.1l-0.1,0.8l1.1-0.7l2.7,0.3l5.7,0.6c0,0,0.3,0.4,0.6,0.8c0.3,0.4,0.7,0.8,0.7,0.8l-1.9,1.5l-0.7-0.7
	l-2.1-0.2l-0.2,2.1l4.3,0.3l-0.2,2.3l-6.1-0.3l-3.5-0.2l-0.8-0.9l-0.1,0.8l-1-0.1c0,0.8-0.1,1.7-0.1,2.5l1,0l0,0.8l1-0.7l2.7,0.1
	l5.7,0.2l1.4,1.4l-1.8,1.6l-0.7-0.7l-2.2,0l-0.1,2.1l4.3,0l0,2.3l-6.1,0.1l-3.5,0.1l-0.9-0.8l0,0.8l-1,0c0,0.8,0,1.7,0.1,2.5l1,0
	l0,0.8l1-0.8l2.7-0.1l5.7-0.2l1.5,1.3c0,0-0.4,0.4-0.9,0.9c-0.4,0.4-0.8,0.9-0.8,0.9l-0.8-0.6l-2.1,0.1l0.2,2.1l4.3-0.3l0.2,2.3
	l-6.1,0.6l-3.5,0.3l-0.9-0.8l0.1,0.8l-1,0.1c0.1,0.8,0.2,1.7,0.2,2.5l1-0.1l0.1,0.8l0.9-0.9l2.7-0.3l5.7-0.6l1.6,1.2l-1.6,1.9
	l-0.8-0.6l-2.1,0.3l0.3,2.1l4.3-0.6c0,0,0,0.1,0,0.4c0,0.2,0.1,0.5,0.1,0.8c0.1,0.6,0.2,1.1,0.2,1.1l-6,1l-3.5,0.6l-1-0.7l0.1,0.8
	l-1,0.2c0.1,0.8,0.3,1.6,0.4,2.5l1-0.2l0.1,0.8l0.9-1l2.7-0.5l5.6-1.1l1.7,1.1l-0.7,1c-0.4,0.5-0.7,1-0.7,1l-0.9-0.5l-2.1,0.4
	l0.5,2.1l4.2-0.9l0.5,2.3l-5.9,1.4l-3.4,0.8l-1-0.6l0.2,0.8l-1,0.2c0.2,0.8,0.4,1.6,0.6,2.4l1-0.2l0.2,0.8l0.8-1l2.6-0.7l5.5-1.5
	l1.8,1l-1.3,2.1l-0.9-0.4l-2.1,0.6l0.6,2.1l4.1-1.2c0,0,0.2,0.6,0.3,1.1c0.2,0.5,0.4,1.1,0.4,1.1l-5.8,1.9l-3.3,1.1l-1.1-0.5
	l0.3,0.8l-1,0.3c0.3,0.8,0.5,1.6,0.8,2.4l1-0.3l0.3,0.8l0.7-1.1l2.6-0.9l5.4-1.9l1.8,0.8l-0.6,1.1c-0.3,0.5-0.6,1.1-0.6,1.1
	s-0.2-0.1-0.5-0.2c-0.2-0.1-0.5-0.2-0.5-0.2l-2,0.7c0,0,0,0.1,0.1,0.3c0.1,0.2,0.2,0.4,0.3,0.7c0.2,0.5,0.4,1,0.4,1l4-1.5l0.8,2.2
	l-5.6,2.3l-3.3,1.3l-1.1-0.5l0.3,0.8l-1,0.4c0.3,0.8,0.6,1.5,1,2.3l0.9-0.4l0.3,0.7l0.6-1.1l2.5-1.1l5.3-2.3l1.9,0.7l-1,2.2l-1-0.3
	l-2,0.9l0.9,1.9l3.9-1.8c0,0,0.2,0.5,0.5,1.1c0.3,0.5,0.5,1,0.5,1l-5.5,2.7l-3.2,1.6l-1.2-0.4l0.4,0.7l-0.9,0.5
	c0.4,0.7,0.7,1.5,1.1,2.2l0.9-0.5l0.4,0.7l0.5-1.2l2.4-1.2l5.1-2.6l1.9,0.6c0,0-0.2,0.6-0.4,1.2c-0.2,0.6-0.4,1.2-0.4,1.2l-0.5-0.1
	c-0.2-0.1-0.5-0.1-0.5-0.1l-1.9,1c0,0,0.3,0.5,0.5,0.9c0.3,0.5,0.5,0.9,0.5,0.9l3.8-2.1l1.1,2l-5.2,3.1l-3,1.8l-1.2-0.3l0.4,0.7
	l-0.9,0.5c0.4,0.7,0.8,1.4,1.3,2.1l0.8-0.5l0.4,0.7l0.4-1.2l2.3-1.4l4.9-3l2,0.4l-0.6,2.4l-1-0.1l-1.8,1.2l1.2,1.8l3.6-2.4
	c0,0,0.3,0.5,0.6,1c0.3,0.5,0.7,0.9,0.7,0.9l-5,3.5l-2.9,2l-1.2-0.2l0.5,0.7l-0.8,0.6c0.5,0.7,1,1.4,1.4,2l0.8-0.6l0.5,0.7l0.4-1.2
	l2.2-1.6l4.6-3.4l2,0.3l-0.2,1.2c-0.1,0.6-0.2,1.2-0.2,1.2l-1-0.1l-1.7,1.3l1.3,1.7l3.4-2.6l1.4,1.8l-4.7,3.8l-2.7,2.2l-1.2-0.1
	l0.5,0.6l-0.8,0.6c0.5,0.6,1,1.3,1.6,1.9l0.8-0.6l0.5,0.6l0.3-1.2l2.1-1.7l4.4-3.7l2,0.1l-0.3,2.4l-1,0l-1.6,1.4l1.4,1.6l3.2-2.9
	c0,0,0.4,0.5,0.8,0.9c0.4,0.4,0.8,0.8,0.8,0.8l-4.5,4.1l-2.6,2.4l-1.2,0l0.6,0.6l-0.7,0.7c0.6,0.6,1.1,1.2,1.7,1.8l0.7-0.7l0.6,0.6
	l0.2-1.3l2-1.9l4.1-4l2,0c0,0,0,0.6-0.1,1.2l0,1.2l-1,0.1l-1.5,1.5l1.5,1.5l3-3.1l1.7,1.6l-4.1,4.5l-2.4,2.6l-1.2,0.1l0.6,0.6
	l-0.7,0.8c0.6,0.6,1.2,1.1,1.8,1.7l0.7-0.7l0.6,0.5l0.1-1.3l1.8-2l3.8-4.3l2-0.2l0.1,2.4l-1,0.1l-1.4,1.6l1.6,1.4l2.8-3.3
	c0,0,0.4,0.4,0.9,0.7c0.5,0.4,0.9,0.7,0.9,0.7l-3.8,4.7l-2.2,2.7l-1.2,0.2l0.6,0.5l-0.6,0.8c0.7,0.5,1.3,1,2,1.5l0.6-0.8l0.6,0.5
	l0-1.3l1.7-2.2l3.5-4.5l2-0.3c0,0,0,0.6,0.1,1.2c0.1,0.6,0.1,1.2,0.1,1.2l-1,0.2l-1.3,1.7l1.7,1.2l2.5-3.5l1.9,1.4l-3.5,5l-2,2.9
	l-1.2,0.2l0.7,0.5l-0.6,0.8c0.7,0.5,1.4,0.9,2.1,1.4l0.6-0.8l0.7,0.4l-0.1-1.3l1.5-2.3l3.1-4.8l2-0.5l0.4,2.4l-1,0.3l-1.2,1.8
	l1.8,1.2l2.3-3.7c0,0,0.1,0.1,0.3,0.2c0.2,0.1,0.4,0.3,0.7,0.4l1,0.6l-3.1,5.2l-1.8,3l-1.2,0.3l0.7,0.4l-0.5,0.9
	c0.7,0.4,1.4,0.8,2.2,1.2l0.5-0.9l0.7,0.4l-0.2-1.3l1.3-2.4l2.8-5l1.9-0.6c0,0,0.1,0.6,0.3,1.2c0.2,0.6,0.3,1.2,0.3,1.2l-1,0.4
	l-1,1.9l1.9,1l2-3.8l2,1.1l-2.7,5.5l-1.6,3.2l-1.1,0.4l0.7,0.4l-0.4,0.9c0.7,0.4,1.5,0.7,2.3,1.1l0.4-0.9l0.7,0.3l-0.3-1.2l1.2-2.5
	l2.4-5.2l1.9-0.8l0.8,2.3l-0.9,0.4l-0.9,2l1.9,0.9l1.7-4c0,0,0.1,0.1,0.3,0.1c0.2,0.1,0.5,0.2,0.7,0.3c0.5,0.2,1.1,0.4,1.1,0.4
	l-2.3,5.6l-1.3,3.3l-1.1,0.5l0.8,0.3l-0.4,1c0.8,0.3,1.5,0.6,2.3,0.9l0.4-0.9l0.7,0.3l-0.4-1.2l1-2.5l2-5.4l1.8-0.9
	c0,0,0.2,0.6,0.5,1.1l0.5,1.1l-0.9,0.5l-0.7,2l2,0.7l1.4-4.1l2.2,0.8l-1.9,5.8l-1.1,3.4l-1.1,0.6l0.8,0.3l-0.3,1
	c0.8,0.3,1.6,0.5,2.4,0.7l0.3-0.9l0.8,0.2l-0.5-1.2l0.8-2.6l1.6-5.5l1.8-1l1.1,2.2l-0.8,0.6l-0.6,2.1l2.1,0.6l1.1-4.2
	c0,0,0.6,0.2,1.1,0.3c0.6,0.1,1.1,0.3,1.1,0.3l-1.4,5.9l-0.8,3.4l-1,0.7l0.8,0.2l-0.2,1c0.8,0.2,1.6,0.4,2.4,0.6l0.2-1l0.8,0.2
	l-0.5-1.2l0.6-2.7l1.2-5.6l1.7-1.1c0,0,0.3,0.5,0.6,1.1l0.6,1l-0.8,0.6l-0.4,2.1l2.1,0.4l0.8-4.2l2.3,0.4l-1,6l-0.6,3.5l-1,0.7
	l0.8,0.2l-0.2,1c0.8,0.1,1.6,0.3,2.5,0.4l0.1-1l0.8,0.1l-0.6-1.1l0.4-2.7l0.8-5.7l1.6-1.3l1.4,2l-0.8,0.7l-0.3,2.1l2.1,0.3l0.5-4.3
	c0,0,0.6,0.1,1.1,0.1c0.6,0,1.2,0.1,1.2,0.1l-0.5,6.1l-0.3,3.5l-0.9,0.8l0.8,0.1l-0.1,1c0.8,0.1,1.7,0.1,2.5,0.2l0.1-1l0.8,0.1
	l-0.7-1.1l0.2-2.7l0.4-5.7l1.5-1.4c0,0,0.4,0.5,0.8,1c0.4,0.5,0.8,0.9,0.8,0.9l-0.4,0.4c-0.2,0.2-0.4,0.4-0.4,0.4l-0.1,2.2
	c0,0,0.1,0,0.3,0c0.2,0,0.5,0,0.7,0c0.5,0,1.1,0,1.1,0l0.2-4.3l2.3,0.1l-0.1,6.1l-0.1,3.5l-0.9,0.9l0.8,0l0,1c0.8,0,1.6,0,2.4,0
	c0,0,0,0,0.1,0l0-1l0.8,0l-0.8-1l0-2.7l0-5.7l1.4-1.5l1.7,1.7l-0.6,0.8l0,2.2l2.1-0.1l-0.2-4.3c0,0,0.6,0,1.2,0c0.6,0,1.2,0,1.2,0
	l0.3,6.1l0.2,3.5c0,0-0.2,0.2-0.4,0.5c-0.2,0.2-0.4,0.5-0.4,0.5l0.4,0c0.2,0,0.4,0,0.4,0l0.1,1c0.8,0,1.7-0.1,2.5-0.2l-0.1-1
	l0.8-0.1l-0.9-1l-0.2-2.7l-0.4-5.7l1.3-1.6l1.8,1.7l-0.6,0.8l0.2,2.1c0,0,0.5,0,1.1-0.1c0.5-0.1,1.1-0.1,1.1-0.1l-0.5-4.3l2.3-0.3
	l0.8,6l0.4,3.5l-0.7,1l0.8-0.1l0.1,1c0.8-0.1,1.7-0.2,2.5-0.3l-0.1-1l0.8-0.1l-0.9-0.9l-0.4-2.7l-0.9-5.7l0.6-0.8l0.6-0.8l1.9,1.5
	l-0.5,0.9l0.4,2.1l2.1-0.4l-0.8-4.2l2.3-0.4l1.2,6l0.7,3.4l-0.7,1l0.8-0.1l0.2,1c0.8-0.2,1.6-0.3,2.4-0.5l-0.2-1l0.8-0.2l-1-0.8
	l-0.6-2.7l-1.3-5.6l1-1.8l2,1.4l-0.5,0.9l0.5,2.1c0,0,0.5-0.1,1-0.2c0.5-0.1,1-0.3,1-0.3l-1.1-4.2l2.2-0.6l1.7,5.9l1,3.4l-0.6,1.1
	l0.8-0.2l0.3,1c0.8-0.2,1.6-0.5,2.4-0.7l-0.3-1l0.8-0.2l-1-0.8l-0.8-2.6l-1.7-5.5c0,0,0.2-0.4,0.5-0.9c0.2-0.4,0.4-0.9,0.4-0.9
	l2.1,1.2l-0.4,0.9l0.7,2l2-0.7l-1.4-4.1l2.2-0.7l2.1,5.7l1.2,3.3l-0.5,1.1l0.8-0.3l0.3,1c0.8-0.3,1.6-0.6,2.3-0.9l-0.4-0.9l0.7-0.3
	l-1.1-0.7l-1-2.5l-2.1-5.3l0.8-1.9l2.2,1.1l-0.3,0.9l0.8,2l1-0.4c0.2-0.1,0.5-0.2,0.7-0.3c0.2-0.1,0.3-0.1,0.3-0.1l-1.7-4l2.1-0.9
	l2.5,5.6l1.4,3.2l-0.4,1.1l0.7-0.3l0.4,0.9c0.8-0.3,1.5-0.7,2.3-1l-0.4-0.9l0.7-0.3l-1.1-0.6l-1.2-2.5l-2.5-5.2c0,0,0.2-0.5,0.3-1
	c0.2-0.5,0.3-1,0.3-1l2.3,0.9l-0.3,1l1,1.9l1.9-1l-2-3.8l2.1-1l2.9,5.4l1.7,3.1l-0.3,1.2l0.7-0.4l0.5,0.9c0.7-0.4,1.5-0.8,2.2-1.2
	l-0.5-0.9l0.7-0.4l-1.2-0.5l-1.3-2.4l-2.8-5l0.5-2l2.3,0.7l-0.2,1l1.1,1.9c0,0,0.5-0.3,0.9-0.5c0.5-0.3,0.9-0.5,0.9-0.5l-2.3-3.7
	l2-1.2l3.3,5.1l1.9,3l-0.2,1.2l0.7-0.4l0.6,0.9c0.7-0.4,1.4-0.9,2.1-1.4l-0.5-0.8l0.7-0.4l-1.2-0.4l-1.5-2.3l-3.2-4.8
	c0,0,0.1-0.5,0.2-1c0.1-0.5,0.2-1,0.2-1l2.4,0.5l-0.1,1l1.2,1.8l1.7-1.2l-2.5-3.5l1.9-1.3l3.6,4.9l2.1,2.8l-0.2,1.2l0.7-0.5l0.6,0.8
	c0.7-0.5,1.3-1,2-1.5l-0.6-0.8l0.6-0.5l-1.2-0.3l-1.7-2.1l-3.5-4.5l0.2-2l2.4,0.4l0,1l1.4,1.7l0.8-0.7c0.4-0.3,0.8-0.7,0.8-0.7
	l-2.8-3.3l1.8-1.5l4,4.6l2.3,2.7l-0.1,1.2l0.6-0.5l0.7,0.8c0.6-0.5,1.3-1.1,1.9-1.7l-0.7-0.7l0.6-0.5l-1.3-0.2l-1.8-2l-3.8-4.2
	c0,0,0-0.5,0-1l0-1l2.4,0.2l0,1l1.5,1.6l1.5-1.5l-3-3.1l1.7-1.6l4.3,4.3l2.5,2.5l0,1.2l0.6-0.6l0.7,0.7c0.6-0.6,1.2-1.2,1.7-1.8
	l-0.7-0.7l0.6-0.6l-1.3-0.1l-2-1.9l-4.1-4l-0.1-2l2.5,0l0.1,1l1.6,1.5l0.7-0.8c0.4-0.4,0.7-0.8,0.7-0.8l-3.2-2.9l1.5-1.7l4.6,4
	l2.7,2.3l0.1,1.2l0.5-0.6l0.8,0.7c0.5-0.6,1.1-1.3,1.6-1.9l-0.8-0.6c0,0,0.1-0.2,0.3-0.3c0.1-0.1,0.3-0.3,0.3-0.3l-1.3-0.1l-2.1-1.7
	l-4.4-3.6c0,0-0.1-0.5-0.1-1l-0.1-1l2.4-0.2l0.2,1l1.7,1.3l1.3-1.7l-3.4-2.6c0,0,0.4-0.5,0.7-0.9c0.2-0.2,0.4-0.5,0.5-0.6
	c0.1-0.2,0.2-0.3,0.2-0.3l4.9,3.6l2.8,2.1l0.1,0.6c0,0.3,0.1,0.6,0.1,0.6s0.1-0.2,0.3-0.3c0.1-0.2,0.2-0.3,0.2-0.3l0.8,0.6
	c0.5-0.7,1-1.3,1.5-2l-0.8-0.6l0.5-0.7l-1.3,0l-2.2-1.6l-4.7-3.3l-0.4-2l2.4-0.3l0.2,1l1.8,1.2l0.6-0.9c0.3-0.4,0.6-0.9,0.6-0.9
	l-3.6-2.4l1.3-1.9l5.1,3.3l3,1.9l0.3,1.2l0.5-0.7l0.9,0.6c0.4-0.7,0.9-1.4,1.3-2.1l-0.8-0.5c0,0,0.1-0.2,0.2-0.3
	c0.1-0.2,0.2-0.3,0.2-0.3s-0.3,0-0.6,0.1c-0.3,0-0.6,0.1-0.6,0.1l-2.3-1.4l-4.9-3c0,0-0.1-0.5-0.3-1l-0.3-1l2.4-0.5l0.3,1l1.9,1.1
	l1.1-1.8l-3.8-2.1c0,0,0.3-0.5,0.6-1c0.3-0.5,0.6-1,0.6-1l5.4,2.9l3.1,1.7c0,0,0.1,0.3,0.2,0.6c0.1,0.3,0.2,0.6,0.2,0.6
	s0.1-0.2,0.2-0.4c0.1-0.2,0.2-0.4,0.2-0.4l0.9,0.5c0.4-0.7,0.8-1.5,1.2-2.2l-0.9-0.5l0.4-0.7l-1.3,0.2l-2.4-1.2l-5.1-2.6l-0.7-1.9
	l2.4-0.7l0.4,0.9l1.9,0.9c0,0,0.3-0.5,0.5-1c0.2-0.5,0.4-1,0.4-1l-3.9-1.8l1-2.1l5.6,2.5l3.2,1.4l0.5,1.1l0.3-0.7l1,0.4
	c0.3-0.8,0.7-1.5,1-2.3l-0.9-0.4c0,0,0.1-0.2,0.2-0.4l0.1-0.4l-1.2,0.3l-2.5-1.1l-5.3-2.2c0,0-0.2-0.5-0.4-0.9
	c-0.2-0.5-0.4-0.9-0.4-0.9l2.3-0.9l0.5,0.9l2,0.8l0.8-2l-4-1.5c0,0,0.2-0.5,0.4-1.1c0.2-0.5,0.4-1.1,0.4-1.1l5.7,2.1l3.3,1.2
	c0,0,0.1,0.3,0.3,0.5c0.1,0.3,0.3,0.5,0.3,0.5s0.1-0.2,0.2-0.4c0.1-0.2,0.1-0.4,0.1-0.4l1,0.3c0.3-0.8,0.6-1.6,0.8-2.4l-1-0.3
	l0.3-0.8l-1.2,0.4l-2.6-0.9l-5.4-1.8l-1-1.8l2.2-1l0.5,0.9l2,0.7c0,0,0.2-0.5,0.3-1c0.1-0.5,0.3-1,0.3-1l-4.1-1.2l0.6-2.2l5.9,1.6
	l3.4,1l0.6,1l0.2-0.8l1,0.3c0.2-0.8,0.4-1.6,0.7-2.4l-0.9-0.3c0,0,0.1-0.2,0.1-0.4l0.1-0.4c0,0-0.3,0.1-0.6,0.3l-0.6,0.2l-2.6-0.7
	l-5.5-1.4c0,0-0.3-0.4-0.5-0.9c-0.3-0.4-0.6-0.9-0.6-0.9l2.1-1.2l0.6,0.8l2.1,0.5l0.5-2.1l-4.2-0.9c0,0,0.1-0.6,0.3-1.1
	c0.1-0.3,0.1-0.6,0.2-0.8c0-0.2,0.1-0.4,0.1-0.4l6,1.2l3.4,0.7c0,0,0.2,0.2,0.3,0.5l0.3,0.5c0,0,0-0.2,0.1-0.4
	c0.1-0.2,0.1-0.4,0.1-0.4l1,0.2c0.2-0.8,0.3-1.6,0.5-2.5l-1-0.2l0.1-0.8l-1.1,0.6l-2.7-0.5l-5.6-1l-1.2-1.6l2.1-1.3l0.6,0.8l2.1,0.3
	l0.2-1c0.1-0.5,0.1-1.1,0.1-1.1l-4.3-0.6l0.3-2.3l6,0.8l3.5,0.4l0.8,0.9l0.1-0.8l1,0.1c0.1-0.8,0.2-1.7,0.3-2.5l-1-0.1l0.1-0.8
	l-1.1,0.7l-2.7-0.3l-5.7-0.6c0,0-0.3-0.4-0.6-0.8c-0.3-0.4-0.7-0.8-0.7-0.8l1.9-1.5l0.7,0.7l2.1,0.2l0.2-2.1l-4.3-0.3l0.2-2.3
	l6.1,0.3l3.5,0.2l0.8,0.9l0.1-0.8l1,0.1c0-0.8,0.1-1.7,0.1-2.5l-1,0L280.2,150.3z M107.9,39.4c5.3-1.9,11.2-3.5,16.7-4.6
	c14.2-2.7,29.2-2.7,43.3,0c7.2,1.4,14.3,3.5,21,6.2c6.9,2.8,13.5,6.3,19.7,10.4c6.4,4.2,12.3,9.1,17.8,14.5
	c5.4,5.4,10.3,11.4,14.5,17.8c4.1,6.2,7.6,12.8,10.4,19.7c2.7,6.8,4.8,13.8,6.2,21c1.4,7.1,2.1,14.4,2.1,21.7
	c0,7.2-0.7,14.5-2.1,21.7c-1,5.4-2.5,10.8-4.4,16.1c-0.6,1.6-1.3,3.6-1.9,4.9c-2.8,6.9-6.3,13.5-10.4,19.7
	c-4.2,6.4-9.1,12.4-14.5,17.8c-5.5,5.4-11.4,10.3-17.8,14.5c-6.2,4.1-12.9,7.6-19.7,10.4c-1.3,0.5-2.7,1.1-4.3,1.6
	c-5.3,1.9-11.3,3.5-16.7,4.6c-7.1,1.4-14.4,2.1-21.7,2.1c-7.3,0-14.5-0.7-21.7-2.1c-7.2-1.4-14.3-3.5-21-6.2
	c-6.9-2.8-13.5-6.3-19.7-10.4c-6.4-4.2-12.3-9.1-17.8-14.5c-5.4-5.4-10.3-11.4-14.5-17.8c-4.1-6.2-7.6-12.8-10.4-19.7
	c-2.7-6.8-4.8-13.8-6.2-21c-1.4-7.1-2.1-14.4-2.1-21.7c0-7.2,0.7-14.5,2.1-21.7c1-5.4,2.5-10.8,4.4-16.1c0.6-1.6,1.3-3.6,1.9-4.9
	c2.8-6.9,6.3-13.5,10.4-19.7C55.6,77.4,60.5,71.5,66,66c5.4-5.4,11.4-10.3,17.8-14.5c6.2-4.1,12.8-7.6,19.7-10.4
	C104.8,40.6,106.3,40,107.9,39.4"/>
</svg>
