<?xml version="1.0" encoding="utf-8"?>
<!-- Generator: Adobe Illustrator 21.0.2, SVG Export Plug-In . SVG Version: 6.00 Build 0)  -->
<svg version="1.1" id="Layer_1" xmlns="http://www.w3.org/2000/svg" xmlns:xlink="http://www.w3.org/1999/xlink" x="0px" y="0px"
	 viewBox="0 0 292.4 292.5" style="enable-background:new 0 0 292.4 292.5;" xml:space="preserve">
<symbol  id="_1056_outline_cleaned" viewBox="-146.3 -146.1 292.5 292.3">
	<path d="M145,4.4l-1.1,0.8L141,5.1l-6.2-0.2l-1.6-1.6l2-1.8l0.8,0.7h2.3l0.1-2.3h-4.7v-2.5l6.6-0.1l3.8-0.1l1,0.9v-0.9h1.1
		c0-0.9,0-1.8-0.1-2.7h-1.1v-0.9L144-5.4l-2.9,0.1L134.9-5l-1.6-1.4c0,0,0.5-0.5,0.9-0.9l0.9-1l0.9,0.7l2.3-0.1l-0.2-2.3l-4.7,0.3
		l-0.2-2.5l6.6-0.6l3.8-0.4l1,0.8l-0.1-0.9l1.1-0.1c-0.1-0.9-0.2-1.8-0.3-2.7l-1.1,0.1l-0.1-0.9l-1,1l-2.9,0.3l-6.2,0.7l-1.8-1.3
		l1.7-2l0.9,0.6l2.3-0.3l-0.3-2.3l-4.6,0.7v-0.4c0-0.2-0.1-0.5-0.1-0.8L132-22l6.5-1.1l3.8-0.6l1.1,0.7l-0.1-0.9l1.1-0.2
		c-0.1-0.9-0.3-1.8-0.5-2.7l-1.1,0.2l-0.1-0.9l-0.9,1l-2.9,0.5l-6.1,1.2l-1.8-1.2l0.8-1.1c0.4-0.5,0.8-1.1,0.8-1.1l1,0.5l2.3-0.5
		l-0.5-2.3l-4.6,1l-0.5-2.4l6.4-1.6l3.7-0.9l1.1,0.7l-0.2-0.9l1.1-0.3c-0.2-0.9-0.4-1.8-0.7-2.6l-1,0.3l-0.2-0.8l-0.8,1.1l-2.9,0.8
		l-6,1.6l-2-1l1.4-2.3l1,0.5l2.2-0.6l-0.6-2.2l-4.5,1.3l-0.3-1.2l-0.4-1.2l6.3-2l3.6-1.2l1.2,0.6l-0.3-0.8l1-0.3
		c-0.3-0.9-0.6-1.7-0.9-2.6l-1,0.3l-0.3-0.8l-0.8,1.2l-2.8,1l-5.9,2l-2-0.9l0.6-1.2c0.3-0.6,0.6-1.2,0.6-1.2l0.5,0.2l0.5,0.2
		l2.2-0.8l-0.1-0.3l-0.3-0.7l-0.4-1.1l-4.4,1.7l-0.9-2.3l6.1-2.5l3.5-1.4l1.2,0.5l-0.3-0.8l1-0.4c-0.3-0.8-0.7-1.7-1-2.5l-1,0.4
		l-0.4-0.8l-0.7,1.2l-2.9,1.2l-5.7,2.4l-2.1-0.7l1-2.4l1,0.3l2.1-1l-1-2.1l-4.2,2l-0.5-1.2l-0.6-1.1l5.9-2.9l3.4-1.7l1.3,0.4
		l-0.4-0.8l1-0.5c-0.4-0.8-0.8-1.6-1.2-2.4l-1,0.5l-0.4-0.8l-0.6,1.3l-2.6,1.3l-5.5,2.9l-2.1-0.6l0.5-1.3c0.2-0.6,0.4-1.3,0.4-1.3
		l0.5,0.1l0.5,0.1l2-1.1c0,0-0.3-0.5-0.6-1l-0.6-1l-4.1,2.3l-1.2-2.2l5.7-3.3l3.3-1.9l1.3,0.3l-0.4-0.8l1-0.6
		c-0.5-0.8-0.9-1.6-1.4-2.3l-0.9,0.6l-0.5-0.7l-0.5,1.3l-2.5,1.5l-5.3,3.3l-2.2-0.4l0.7-2.6l1.1,0.2l2-1.3l-1.3-1.9l-3.9,2.6
		l-0.7-1.1l-0.7-1l5.4-3.8l3.1-2.2l1.3,0.2l-0.5-0.7l0.9-0.6c-0.5-0.7-1-1.5-1.6-2.2l-0.9,0.6l-0.5-0.7l-0.4,1.3l-2.4,1.7l-5,3.6
		l-2.2-0.3l0.3-1.3c0.1-0.7,0.2-1.3,0.2-1.3l1.1,0.1l1.9-1.4l-1.4-1.8l-3.7,2.9l-1.5-2l5.1-4.1l3-2.4l1.3,0.1l-0.5-0.7l0.9-0.7
		c-0.6-0.7-1.1-1.4-1.7-2.1l-0.8,0.7l-0.6-0.7l-0.3,1.3l-2.3,1.9l-4.7,4l-2.2-0.1l0.3-2.6h1.1l1.8-1.5l-1.5-1.8l-3.5,3.1
		c0,0-0.4-0.5-0.8-0.9L97.8-91l4.8-4.5l2.8-2.6h1.3l-0.6-0.7l0.8-0.8c-0.6-0.7-1.2-1.3-1.9-2l-0.8,0.8l-0.6-0.6l-0.2,1.4l-2.1,2
		L97-93.7h-2.2l0.1-1.3v-1.3l1.1-0.1l1.6-1.7l-1.7-1.6l-3.2,3.5L90.9-98l4.5-4.8l2.6-2.8l1.3-0.1l-0.6-0.6l0.8-0.8
		c-0.7-0.6-1.3-1.2-2-1.8l-0.7,0.8l-0.7-0.6l-0.1,1.4l-2,2.2l-4.1,4.6l-2.2,0.2l-0.1-2.6l1.1-0.2l1.5-1.8l-1.8-1.5l-3,3.6
		c0,0-0.5-0.4-1-0.8l-1-0.8l4.1-5.1l2.4-3l1.3-0.2l-0.7-0.6l0.7-0.9c-0.7-0.6-1.4-1.1-2.1-1.7l-0.7,0.8l-0.7-0.5v1.4l-1.8,2.3
		l-3.8,4.9l-2.1,0.3c0,0,0-0.7-0.1-1.3l-0.1-1.3l1.1-0.3l1.4-1.9l-1.9-1.3l-2.7,3.8l-2-1.5l3.7-5.4l2.2-3.1l1.3-0.3l-0.7-0.5
		l0.6-0.9c-0.7-0.5-1.5-1-2.3-1.5l-0.6,0.9l-0.7-0.5l0.1,1.4l-1.6,2.5l-3.4,5.2l-2.1,0.5l-0.5-2.6l1-0.3l1.3-2l-1.9-1.3l-2.4,4
		l-0.3-0.2l-0.7-0.4l-1.1-0.6l3.3-5.7l2-3.3l1.3-0.4l-0.8-0.5l0.6-1l-2.4-1.3l-0.5,0.9l-0.8-0.4l0.2,1.4l-1.4,2.6l-3,5.4l-2.1,0.7
		c0,0-0.1-0.7-0.3-1.3l-0.3-1.3l1-0.4l1.1-2l-2.1-1.1l-2.1,4.2l-2.2-1.2l2.9-5.9l1.7-3.4l1.3-0.4l-0.8-0.4l0.5-1l-2.4-1.2l-0.5,1
		l-0.8-0.4l0.3,1.3l-1.3,2.6l-2.6,5.6l-2,0.8l-0.8-2.5l1-0.5l1-2.1l-2.1-1l-1.8,4.3l-0.4-0.2l-0.8-0.3l-1.2-0.5l2.5-6.1l1.4-3.5
		l1.2-0.6l-0.8-0.3l0.4-1l-2.5-1l-0.4,1l-0.8-0.3l0.4,1.3l-1.1,2.8l-2.2,5.8l-2,0.9c0,0-0.2-0.6-0.5-1.2l-0.5-1.2l1-0.6l0.7-2.1
		l-2.2-0.7l-1.5,4.4l-2.4-0.8l2-6.3l1.2-3.6l1.1-0.6l-0.8-0.3l0.4-1L42-140l-0.3,1l-0.8-0.2l0.5,1.3l-0.9,2.8l-1.8,5.9l-1.9,1.1
		l-1.2-2.4l0.9-0.6l0.6-2.3l-2.2-0.6l-1.2,4.5c0,0-0.6-0.2-1.2-0.3l-1.2-0.3l1.6-6.4l0.9-3.7l1.1-0.7l-0.9-0.2l0.3-1.1l-2.6-0.6
		l-0.2,1.1l-0.9-0.2l0.6,1.3l-0.6,2.9l-1.3,6.1l-1.8,1.2c0,0-0.3-0.6-0.7-1.1l-0.7-1.1l0.9-0.7l0.5-2.3l-2.3-0.4l-0.9,4.6l-2.5-0.5
		l1.1-6.5l0.6-3.8l1.1-0.8l-0.9-0.2l0.2-1.1l-2.7-0.4l-0.2,1.1l-0.9-0.1l0.7,1.2l-0.4,2.9l-0.9,6.1l-1.7,1.4l-1.5-2.1l0.8-0.7
		l0.3-2.3l-2.3-0.3l-0.5,4.6c0,0-0.6-0.1-1.2-0.2l-1.3-0.1l0.6-6.6l0.3-3.8l1-0.9l-0.9-0.1l0.1-1.1c-0.9-0.1-1.8-0.2-2.7-0.2
		l-0.1,1.1l-0.9-0.1l0.8,1.2l-0.2,2.9l-0.5,6.2l-1.6,1.5l-0.8-1c-0.4-0.5-0.9-1-0.9-1l0.4-0.4l0.4-0.4l0.1-2.4H7H6.2H5l-0.2,4.7
		l-2.5-0.1l0.1-6.6l0.1-3.8l0.9-0.9H2.6v-1.1c-0.9,0-1.8,0-2.6,0h-0.1v0.9H-1l0.9,1.1v3v6.2l-1.5,1.6l-1.8-1.9l0.7-0.8v-2.3
		l-2.3,0.1l0.2,4.7h-1.3c-0.6,0-1.3,0-1.3,0l-0.4-6.6l-0.2-3.8l0.4-0.5l0.4-0.5h-0.4H-8l-0.1-1.1l-2.7,0.2l0.1,1.1l-0.9,0.1l0.9,1
		l0.2,2.9l0.5,6.2l-1.4,1.7l-2-1.8l0.6-0.9l-0.2-2.3l-1.1,0.1c-0.6,0.1-1.1,0.1-1.1,0.1l0.5,4.7l-2.5,0.3l-0.8-6.5l-0.5-3.8l0.8-1.1
		l-0.9,0.1l-0.2-1.1c-0.9,0.1-1.8,0.3-2.7,0.4l0.1,1.2l-0.9,0.1l1,1l0.4,2.9l0.9,6.1l-0.6,0.9l-0.6,0.9l-2.1-1.6l0.6-0.9l-0.4-2.3
		l-2.3,0.4l0.8,4.6l-2.5,0.4l-1.3-6.5l-0.8-3.7l0.7-1.1l-0.9,0.1l-0.2-1.1c-0.9,0.2-1.8,0.4-2.7,0.6l0.2,1.1l-0.8,0.2l1.1,0.9
		l0.6,2.9l1.4,6l-1.1,1.9l-2.2-1.4l0.5-1l-0.6-2.3l-1.1,0.3c-0.6,0.1-1.1,0.3-1.1,0.3l1.2,4.5l-2.4,0.7l-1.8-6.3l-1-3.7l0.6-1.2
		l-0.9,0.2l-0.3-1.1c-0.9,0.3-1.7,0.5-2.6,0.8l0.3,1l-0.8,0.2l1.1,0.8l0.8,2.8l1.8,5.9l-0.5,1c-0.3,0.5-0.5,1-0.5,1l-2.3-1.3l0.4-1
		l-0.7-2.2l-2.2,0.7l1.5,4.4l-2.4,0.8l-2.3-6.2l-1.3-3.6l0.5-1.2l-0.8,0.3l-0.4-1c-0.8,0.3-1.7,0.6-2.5,1l0.4,1l-0.8,0.3l1.2,0.7
		l1.1,2.8l2.3,5.7l-0.8,2l-2.4-1.1l0.4-1l-0.9-2.1l-1.1,0.4l-0.7,0.3l-0.3,0.2l1.8,4.3l-2.3,1l-2.7-6l-1.6-3.5l0.4-1.2l-0.8,0.4
		l-0.5-1c-0.8,0.4-1.6,0.8-2.5,1.1l0.4,1l-0.8,0.4l1.2,0.6l1.3,2.7l2.7,5.6l-0.3,1c-0.2,0.5-0.3,1-0.3,1l-2.4-0.9l0.3-1.1l-1.1-2.1
		l-2,1.1l2.2,4.2l-2.2,1.1l-3.1-5.8l-1.8-3.3l0.3-1.3l-0.8,0.4l-0.5-1c-0.8,0.4-1.6,0.9-2.4,1.3l0.5,1l-0.8,0.4l1.3,0.5l1.4,2.6
		l3.1,5.4l-0.5,2.1l-2.5-0.7l0.2-1.1l-1.2-2l-1,0.6c-0.5,0.3-1,0.6-1,0.6l2.4,4l-2.1,1.3l-3.6-5.6l-2.1-3.2l0.3-1.3l-0.8,0.5l-0.6-1
		c-0.8,0.5-1.5,1-2.3,1.5l0.6,0.9l-0.7,0.5l1.3,0.5l1.6,2.4l3.4,5.2l-0.2,1.1c-0.1,0.5-0.2,1.1-0.2,1.1l-2.6-0.6l0.1-1.1l-1.3-1.9
		l-1.9,1.3l2.7,3.8l-2.1,1.4l-3.9-5.3l-2.3-3l0.2-1.3l-0.7,0.5l-0.6-0.9c-0.7,0.5-1.4,1.1-2.2,1.6l0.7,0.9l-0.7,0.6l1.3,0.3l1.8,2.3
		l3.8,4.9l-0.2,2.2l-2.6-0.4v-1.1l-1.5-1.8l-0.9,0.7c-0.5,0.3-0.9,0.7-0.9,0.7l3,3.6l-1.9,1.6l-4.3-5l-2.4-2.9l0.1-1.3l-0.7,0.6
		l-0.7-0.8c-0.7,0.6-1.4,1.2-2,1.8l0.7,0.8l-0.7,0.6l1.4,0.3l2,2.2l4.2,4.6v1.1v1.1l-2.6-0.2v-1.1l-1.7-1.7l-1.7,1.6l3.2,3.4
		l-1.8,1.7l-4.6-4.6l-2.7-2.7v-1.3l-0.7,0.6l-0.8-0.8c-0.6,0.6-1.3,1.3-1.9,1.9l0.8,0.8l-0.6,0.6l1.4,0.2l2.1,2l4.5,4.3l0.1,2.2
		h-2.7l-0.1-1.1l-1.7-1.6l-0.8,0.8c-0.4,0.4-0.8,0.9-0.8,0.9l3.4,3.1l-1.7,1.9l-5-4.3l-2.9-2.5l-0.1-1.3l-0.6,0.7l-0.9-0.7
		c-0.6,0.7-1.2,1.4-1.8,2.1l0.8,0.7l-0.3,0.3c-0.2,0.2-0.3,0.3-0.3,0.3l1.4,0l2.3,1.9l4.8,3.9l0.1,1.1l0.2,1.1l-2.6,0.2l-0.2-1
		l-1.8-1.5l-1.4,1.8l3.7,2.9l-0.8,1l-0.5,0.7l-0.2,0.3l-5.3-3.9l-3.1-2.3l-0.1-0.7l-0.1-0.7l-0.3,0.3c-0.1,0.2-0.3,0.3-0.3,0.3
		l-0.9-0.7c-0.5,0.7-1.1,1.5-1.6,2.2l0.9,0.6l-0.5,0.7l1.4,0l2.4,1.7l5,3.6l0.5,2.1l-2.6,0.3l-0.3-1l-1.9-1.3l-0.7,0.9l-0.6,1
		l3.9,2.6l-1.4,2.1l-5.6-3.6l-3.2-2l-0.3-1.3l-0.5,0.7l-1-0.6c-0.5,0.8-1,1.5-1.4,2.3l0.9,0.6l-0.2,0.4l-0.2,0.4l0.7-0.1l0.7-0.1
		l2.5,1.5l5.3,3.2c0,0,0.1,0.5,0.3,1.1l0.3,1.1l-2.6,0.6l-0.3-1l-2-1.2l-1.2,2l4.1,2.3l-0.6,1c-0.3,0.5-0.6,1.1-0.6,1.1l-5.8-3.1
		l-3.4-1.8l-0.2-0.6l-0.2-0.6l-0.2,0.4l-0.2,0.4l-1-0.5c-0.4,0.8-0.9,1.6-1.3,2.4l1,0.5l-0.4,0.8l1.4-0.3l2.6,1.3l5.5,2.8l0.7,2.1
		l-2.6,0.7l-0.4-1l-2.1-1c0,0-0.3,0.5-0.5,1l-0.5,1.1l4.2,2l-1,2.3l-6-2.7l-3.5-1.6l-0.5-1.2l-0.4,0.8l-1-0.5
		c-0.4,0.8-0.7,1.7-1.1,2.5l1,0.4c0,0-0.1,0.2-0.2,0.4l-0.2,0.4l1.3-0.3l2.7,1.2l5.7,2.4c0,0,0.2,0.5,0.4,1l0.5,1l-2.5,0.9l-0.5-1
		l-2.2-0.9l-0.8,2.2l4.4,1.7l-0.5,1.2c-0.3,0.6-0.5,1.2-0.5,1.2l-6.2-2.3l-3.6-1.3l-0.3-0.6l-0.3-0.6c0,0-0.1,0.2-0.2,0.4l-0.1,0.4
		l-1-0.4c-0.3,0.8-0.6,1.7-0.9,2.6l1,0.4l-0.3,0.8l1.3-0.4l2.8,1l5.9,2l1,1.9l-2.4,1.1l-0.6-0.9L-132-42l-0.4,1.1l-0.3,1.1l4.5,1.3
		l-0.7,2.4l-6.4-1.8l-3.7-1l-0.7-1.1l-0.3,0.8l-1.1-0.3c-0.2,0.8-0.5,1.6-0.7,2.5l1,0.3l-0.1,0.4l-0.1,0.4l0.6-0.3l0.6-0.3l2.9,0.7
		l6,1.5c0,0,0.3,0.5,0.6,0.9l0.6,0.9l-2.3,1.3l-0.6-0.9l-2.3-0.6l-0.5,2.3l4.6,1l-0.3,1.2l-0.2,0.8c-0.1,0.2-0.1,0.4-0.1,0.4
		l-6.5-1.3l-3.7-0.8l-0.4-0.5l-0.4-0.5l-0.1,0.4c-0.1,0.2-0.1,0.4-0.1,0.4l-1.1-0.2c-0.2,0.9-0.4,1.8-0.5,2.7l1.1,0.2l-0.2,0.9
		l1.2-0.6l2.9,0.5l6.1,1.1l1.3,1.8l-2.3,1.4l-0.7-0.8l-2.3-0.4l-0.2,1.1c-0.1,0.6-0.2,1.1-0.2,1.1l4.6,0.7l-0.3,2.5l-6.5-0.8
		l-3.8-0.5l-0.8-1l-0.1,0.9l-1.1-0.1c-0.1,0.9-0.2,1.8-0.3,2.7l1.1,0.1l-0.1,0.9l1.2-0.7l2.9,0.3l6.2,0.6l0.7,0.8l0.7,0.8l-2.1,1.6
		l-0.8-0.8l-2.3-0.2l-0.2,2.3l4.7,0.3l-0.2,2.5l-6.6-0.4l-3.8-0.2l-0.9-1l-0.1,0.9l-1.1-0.1c0,0.9-0.1,1.8-0.1,2.7h1.1v0.9l1.1-0.8
		l2.9,0.1l6.2,0.2l1.6,1.6l-2,1.8l-0.8-0.7h-2.3l-0.1,2.3h4.7v2.5l-6.6,0.1l-3.8,0.1l-1-0.9v0.9l-1,0.1c0,0.9,0,1.8,0.1,2.7h1.1v0.9
		l1.1-0.9l2.9-0.1l6.2-0.3l1.6,1.4c0,0-0.5,0.5-0.9,0.9l-0.9,1l-0.9-0.7l-2.3,0l0.2,2.3l4.7-0.3l0.2,2.5l-6.6,0.6l-3.8,0.4l-1-0.8
		l0.1,0.9l-1.1,0.1c0.1,0.9,0.2,1.8,0.3,2.7l1.1-0.1l0.1,0.9l1-1l2.9-0.3l6.2-0.7l1.8,1.3l-1.7,2l-0.9-0.6l-2.3,0.3l0.3,2.3l4.6-0.7
		v0.4c0,0.2,0.1,0.5,0.1,0.9l0.2,1.2l-6.5,1.1l-3.8,0.7l-1.1-0.7l0.1,0.8l-1.1,0.2c0.2,0.9,0.3,1.8,0.5,2.7l1.1-0.2l0.1,0.9l0.9-1
		l2.9-0.5l6.1-1.1l1.9,1.2l-0.8,1.1c-0.4,0.5-0.8,1.1-0.8,1.1l-1-0.5l-2.3,0.5l0.5,2.3l4.6-1l0.5,2.4l-6.4,1.5l-3.7,0.9l-1.1-0.7
		l0.2,0.9l-1.1,0.3c0.2,0.9,0.4,1.8,0.7,2.6l1-0.3l0.2,0.8l0.8-1.1l2.9-0.8l6-1.6l2,1l-1.4,2.3l-1-0.5l-2.2,0.6l0.6,2.2l4.5-1.4
		l0.3,1.2l0.4,1.2l-6.3,2l-3.6,1.2l-1.2-0.6l0.3,0.8l-1.1,0.5c0.3,0.9,0.6,1.7,0.9,2.6l1-0.4l0.3,0.8l0.8-1.2l2.8-1l5.9-2l2,0.9
		l-0.6,1.2c-0.3,0.6-0.6,1.2-0.6,1.2l-0.5-0.2l-0.5-0.2l-2.2,0.8l0.1,0.3l0.3,0.7l0.4,1.1l4.3-1.7l0.9,2.3l-6.1,2.5l-3.5,1.4
		l-1.2-0.5l0.3,0.8l-1,0.4c0.3,0.8,0.7,1.7,1,2.5l1-0.4l0.4,0.8l0.7-1.2l2.7-1.2l5.6-2.4l2.1,0.7l-1,2.4l-1-0.3l-2.1,1l1,2.1l4.2-2
		l0.5,1.1l0.6,1.1l-5.9,2.9l-3.4,1.7l-1.3-0.4l0.4,0.8l-1,0.5c0.4,0.8,0.8,1.6,1.2,2.4l1-0.5l0.4,0.8l0.6-1.3l2.6-1.4l5.5-2.9
		l2.1,0.6l-0.4,1.3c-0.2,0.6-0.4,1.3-0.4,1.3l-0.6-0.1l-0.5-0.1l-2.1,1.1c0,0,0.3,0.5,0.6,1l0.6,1l4.1-2.3l1.2,2.2l-5.7,3.3
		l-3.3,1.9l-1.3-0.3l0.4,0.8l-1,0.6c0.5,0.8,0.9,1.6,1.4,2.3l0.9-0.6l0.5,0.7l0.5-1.3l2.5-1.5l5.3-3.3l2.2,0.4l-0.7,2.6l-1.1-0.2
		l-2,1.3l1.3,1.9l3.9-2.6l0.7,1.1l0.7,1l-5.4,3.8l-3.1,2.2l-1.3-0.2l0.5,0.7l-0.9,0.6c0.5,0.7,1,1.5,1.6,2.2l0.9-0.6l0.5,0.7
		l0.4-1.3l2.4-1.7l5-3.6l2.2,0.3l-0.3,1.3c-0.1,0.7-0.2,1.3-0.2,1.3l-1.1-0.1l-1.8,1.4l1.4,1.8l3.7-2.9l1.5,2l-5.1,4l-3,2.4
		l-1.3-0.1l0.5,0.7l-0.9,0.7c0.6,0.7,1.1,1.4,1.7,2.1l0.8-0.7l0.6,0.7l0.3-1.3l2.3-1.9l4.7-4l2.2,0.1l-0.3,2.6h-1l-1.8,1.5l1.5,1.8
		l3.5-3.1c0,0,0.4,0.5,0.8,0.9L-98,91l-4.8,4.5l-2.8,2.6h-1.3l0.6,0.6l-0.8,0.8c0.6,0.7,1.2,1.3,1.9,2l0.8-0.8l0.6,0.6l0.2-1.4
		l2.1-2l4.4-4.3h2.2L-95,95v1.3l-1.1,0.1l-1.7,1.6l1.7,1.6l3.3-3.4l1.8,1.8l-4.5,4.7l-2.6,2.8l-1.3,0.1l0.6,0.6l-0.8,0.8
		c0.7,0.6,1.3,1.2,2,1.8l0.7-0.8l0.7,0.6l0.1-1.4l2-2.2l4.1-4.6l2.2-0.2l0.1,2.6l-1.1,0.1l-1.5,1.8l1.8,1.5l3-3.6c0,0,0.5,0.4,1,0.8
		l1,0.8l-4.1,5.1l-2.4,3l-1.3,0.2l0.7,0.6l-0.7,0.9c0.7,0.6,1.4,1.1,2.1,1.7l0.7-0.9l0.7,0.5v-1.4l1.8-2.3l3.7-5l2.2-0.3
		c0,0,0,0.7,0.1,1.3l0.2,1.3l-1.1,0.3l-1.4,1.9l1.9,1.3l2.7-3.8l2,1.5l-3.7,5.4l-2.1,3.2L-83,119l0.7,0.5l-0.6,0.9
		c0.7,0.5,1.5,1,2.2,1.5l0.6-0.9l0.7,0.5l-0.1-1.4l1.6-2.4l3.4-5.2l2.1-0.5l0.5,2.6l-1,0.3l-1.3,2l1.9,1.3l2.4-4l0.3,0.2l0.7,0.4
		l1.1,0.6l-3.3,5.7l-1.9,3.3l-1.3,0.4l0.8,0.5l-0.6,1l2.3,1.4l0.5-0.9l0.8,0.4l-0.2-1.4l1.4-2.6l3-5.4l2.1-0.6c0,0,0.2,0.7,0.3,1.3
		l0.3,1.3l-1,0.4l-1.1,2l2.1,1l2.2-4.2l2.2,1.2l-2.9,5.9l-1.7,3.4l-1.2,0.4l0.8,0.4l-0.5,1l2.4,1.2l0.5-1l0.8,0.4l-0.3-1.3l1.3-2.7
		l2.5-5.6l2-0.8l0.8,2.5l-1,0.5l-1,2.1l2.1,1l1.8-4.3l0.4,0.2l0.8,0.3l1.2,0.5l-2.5,6.1l-1.3,3.5l-1.2,0.5l0.8,0.3l-0.4,1l2.5,1
		l0.4-1l0.8,0.3l-0.4-1.3l1.1-2.8l2.2-5.8l2-0.9c0,0,0.2,0.6,0.5,1.2l0.5,1.2l-1,0.5l-0.8,2.2l2.2,0.7l1.5-4.4l2.4,0.8l-2,6.3
		l-1.2,3.6l-1.2,0.6l0.8,0.3l-0.3,1l2.6,0.8l0.3-1l0.8,0.2l-0.5-1.3l0.8-2.8l1.8-5.9l1.9-1.1l1.2,2.4l-0.9,0.6l-0.6,2.3l2.2,0.6
		l1.2-4.5c0,0,0.6,0.2,1.2,0.3l1.2,0.3l-1.6,6.4l-0.9,3.7l-1.1,0.7l0.9,0.2l-0.3,1.1l2.6,0.6l0.2-1.1l0.8,0.2l-0.6-1.3l0.6-2.9
		l1.4-6l1.8-1.2c0,0,0.3,0.6,0.7,1.1l0.7,1.1l-0.9,0.7l-0.5,2.3l2.3,0.4l0.8-4.6l2.5,0.5l-1.1,6.5l-0.6,3.8l-1.1,0.8l0.9,0.2
		l-0.2,1.1l2.6,0.4l0.2-1.1l0.9,0.1l-0.7-1.2l0.4-2.9l0.9-6.1l1.7-1.4l1.5,2.1l-0.8,0.7l-0.3,2.3l2.3,0.3l0.5-4.6
		c0,0,0.6,0.1,1.2,0.2l1.3,0.1l-0.6,6.6l-0.3,3.8l-1,0.9l0.9,0.1l-0.1,1.1c0.9,0.1,1.8,0.2,2.7,0.2l0.1-1.1l0.9,0.1l-0.8-1.2l0.2-3
		l0.4-6.2l1.6-1.5l0.8,1c0.4,0.5,0.9,1,0.9,1l-0.4,0.4l-0.4,0.4l-0.1,2.3h0.4h0.8h1.2l0.2-4.7l2.5,0.1l-0.1,6.6l-0.1,3.8l-0.9,0.9
		h0.9v1.1c0.9,0,1.8,0,2.6,0H0V145h0.9L0,143.9v-2.8V135l1.5-1.6l1.8,1.9l-0.7,0.8v2.3l2.3-0.1l-0.2-4.7h1.3c0.6,0,1.3,0,1.3,0
		l0.4,6.6l0.2,3.8l-0.4,0.5L7,145h0.4h0.4l0.1,1.1l2.7-0.2l-0.1-1.1l0.9-0.1l-0.9-1l-0.2-2.9l-0.5-6.2l1.4-1.7l2,1.8l-0.6,0.9
		l0.2,2.3l1.1-0.1c0.6-0.1,1.1-0.1,1.1-0.1l-0.5-4.6l2.5-0.3l0.8,6.5l0.5,3.8l-0.8,1.1l0.9-0.1l0.1,1.1c0.9-0.1,1.8-0.3,2.7-0.4
		l-0.1-1.1l0.9-0.1l-1-1l-0.4-2.9l-0.9-6.1l0.6-0.9l0.6-0.9l2.1,1.6l-0.6,0.9l0.4,2.3l2.3-0.4l-0.9-4.6l2.5-0.4l1.3,6.5l0.8,3.7
		l-0.7,1.1l0.9-0.1l0.2,1.1c0.9-0.2,1.8-0.4,2.6-0.6l-0.2-1.1l0.9-0.2l-1.1-0.9l-0.6-2.9l-1.4-6l1.1-1.9l2.2,1.5l-0.5,1l0.6,2.3
		l1.1-0.3c0.6-0.1,1.1-0.3,1.1-0.3l-1.2-4.6l2.4-0.7l1.8,6.4l1,3.7l-0.6,1.2l0.9-0.2l0.3,1.1c0.9-0.3,1.7-0.5,2.6-0.8l-0.3-1
		l0.8-0.2l-1.1-0.8l-0.9-2.8l-1.8-5.9l0.5-1c0.3-0.5,0.5-1,0.5-1l2.3,1.3l-0.4,1l0.7,2.2l2.2-0.7l-1.5-4.4l2.4-0.8l2.3,6.2l1.3,3.6
		l-0.5,1.2l0.8-0.3l0.4,1c0.9-0.3,1.7-0.6,2.5-1l-0.4-1l0.8-0.3l-1.2-0.7l-1-2.7l-2.2-5.8l0.8-2l2.4,1.1l-0.4,1l0.9,2.2l1.1-0.4
		l0.7-0.3l0.3-0.1l-1.8-4.3l2.3-1l2.7,6l1.6,3.5l-0.4,1.2l0.8-0.4l0.5,1c0.8-0.4,1.6-0.8,2.5-1.1l-0.4-1l0.8-0.4l-1.2-0.6l-1.3-2.6
		l-2.7-5.6l0.3-1c0.2-0.5,0.3-1,0.3-1l2.4,0.9l-0.3,1.1l1,2.1l2.1-1.1L61,119l2.2-1.1l3.1,5.8l1.8,3.4l-0.4,1.3l0.8-0.4l0.5,1
		c0.8-0.4,1.6-0.9,2.4-1.3l-0.5-1l0.8-0.4l-1.3-0.5l-1.4-2.6l-3.1-5.4l0.5-2.1l2.5,0.8l-0.2,1.1l1.2,2l1-0.6c0.5-0.3,1-0.6,1-0.6
		l-2.4-4l2.1-1.3l3.6,5.6l2.1,3.2L77,123l0.8-0.5l0.6,1c0.8-0.5,1.5-1,2.3-1.5l-0.6-0.9l0.7-0.5l-1.3-0.5l-1.6-2.5l-3.4-5.1l0.2-1.1
		c0.1-0.5,0.2-1.1,0.2-1.1l2.6,0.6l-0.1,1.1l1.3,1.9l1.9-1.3l-2.7-3.9l2.1-1.4l3.9,5.3l2.3,3l-0.2,1.3l0.7-0.5l0.7,0.9
		c0.7-0.5,1.4-1.1,2.1-1.6l-0.7-0.9l0.7-0.5l-1.3-0.3l-1.8-2.3l-3.8-4.9l0.2-2.2l2.6,0.4v1.1l1.5,1.8l0.9-0.7
		c0.5-0.4,0.9-0.7,0.9-0.7l-3-3.6l1.9-1.6l4.3,5l2.5,2.9l-0.1,1.3l0.6-0.6l0.7,0.9c0.7-0.6,1.4-1.2,2-1.8l-0.7-0.8l0.7-0.6l-1.4-0.3
		l-2-2.2l-4.2-4.6v-1.1v-1.1l2.6,0.2v1.1l1.6,1.7l1.7-1.6l-3-3.3l1.8-1.7l4.7,4.7l2.7,2.7v1.3l0.6-0.6l0.8,0.8
		c0.6-0.6,1.3-1.3,1.9-1.9l-0.8-0.8l0.6-0.6l-1.4-0.1l-2.1-2l-4.5-4.3L97,91.4h2.7l0.1,1.1l1.7,1.6l0.8-0.8c0.4-0.4,0.8-0.9,0.8-0.9
		l-3.5-3.1l1.7-1.9l5,4.3l2.9,2.5l0.1,1.3l0.6-0.7l0.9,0.7c0.6-0.7,1.2-1.4,1.8-2.1l-0.8-0.7l0.3-0.3c0.1-0.2,0.3-0.3,0.3-0.3
		l-1.4,0l-2.3-1.9l-4.8-3.9l-0.1-1.1l-0.2-1.1l2.6-0.2l0.2,1.1l1.8,1.5l1.4-1.8l-3.7-2.8l0.8-1l0.5-0.7l0.2-0.3l5.3,3.9l3.1,2.3
		l0.1,0.6l0.1,0.6l0.3-0.3c0.1-0.2,0.3-0.4,0.3-0.4l0.9,0.6c0.5-0.7,1.1-1.5,1.6-2.2l-0.9-0.6l0.5-0.7l-1.4,0.1l-2.4-1.8l-5-3.6
		l-0.4-2.1l2.6-0.4l0.3,1.1l1.9,1.3l0.7-0.9l0.6-1l-3.9-2.6l1.4-2.1l5.6,3.5l3.2,2l0.3,1.3l0.5-0.7l1,0.6c0.5-0.8,1-1.5,1.4-2.3
		l-0.9-0.6l0.2-0.4l0.2-0.4l-0.7,0.1l-0.7,0.1l-2.5-1.5l-5.3-3.2c0,0-0.1-0.5-0.3-1.1l-0.3-1.1l2.6-0.6l0.4,1l2,1.2l1.1-2l-4.1-2.3
		l0.6-1.1c0.3-0.5,0.6-1.1,0.6-1.1l5.8,3.1l3.4,1.8l0.2,0.6l0.2,0.6l0.2-0.4l0.2-0.4l1,0.5c0.4-0.8,0.9-1.6,1.3-2.4l-1-0.5l0.4-0.8
		l-1.4,0.3l-2.6-1.4l-5.5-2.8l-0.7-2.1l2.6-0.7l0.4,1l2.1,1c0,0,0.3-0.5,0.5-1l0.5-1.1l-4.2-2l1-2.3l6,2.7l3.5,1.6l0.5,1.2l0.4-0.8
		l1,0.5c0.4-0.8,0.7-1.7,1.1-2.5l-1-0.4c0,0,0.1-0.2,0.2-0.4l0.2-0.4l-1.3,0.4l-2.7-1.1l-5.7-2.4c0,0-0.2-0.5-0.5-1l-0.5-1l2.4-0.8
		l0.5,1l2.2,0.9l0.9-2.1l-4.4-1.7l0.5-1.2c0.3-0.6,0.5-1.2,0.5-1.2l6.2,2.3l3.6,1.3l0.3,0.6l0.3,0.6c0,0,0.1-0.2,0.2-0.4l0.1-0.4
		l1,0.4c0.3-0.8,0.6-1.7,0.9-2.6l-1-0.4l0.3-0.8l-1.3,0.4l-2.8-1l-5.9-2l-1-1.9l2.4-1.1l0.5,0.9l2.2,0.7l0.4-1.1l0.3-1.1l-4.5-1.4
		l0.7-2.4l6.4,1.8l3.7,1l0.7,1.1l0.3-0.9l1.1,0.3c0.2-0.9,0.5-1.7,0.7-2.6l-1-0.3l0.1-0.4l0.1-0.4l-0.6,0.3l-0.6,0.3l-2.9-0.7
		l-6-1.5c0,0-0.3-0.5-0.6-0.9l-0.6-0.9l2.3-1.3l0.6,0.9l2.3,0.6l0.5-2.2l-4.6-1l0.3-1.2L131,27c0-0.2,0.1-0.4,0.1-0.4l6.5,1.3
		l3.7,0.8l0.4,0.5l0.4,0.5l0.1-0.4c0.1-0.2,0.1-0.4,0.1-0.4l1.1,0.2c0.2-0.9,0.4-1.8,0.5-2.7l-1.1-0.2l0.1-0.9l-1.2,0.6l-2.9-0.5
		l-6.1-1.1l-1.3-1.8l2.2-1.4l0.7,0.8l2.3,0.4l0.2-1.1c0.1-0.6,0.2-1.1,0.2-1.1l-4.6-0.7l0.3-2.5l6.5,0.8l3.8,0.5l0.8,1l0.1-0.9
		l1.1,0.1c0.1-0.9,0.2-1.8,0.3-2.7l-1.1-0.1l0.1-0.9l-1.2,0.7l-2.9-0.3l-6.2-0.6l-0.7-0.8l-0.7-0.8l2.1-1.6l0.8,0.8l2.3,0.2L138,10
		l-4.7-0.3l0.2-2.5l6.6,0.4l3.8,0.2l0.9,1l0.1-0.9L146,8c0-0.9,0.1-1.8,0.1-2.7H145V4.4z M-41.6-115.7c5.9-2.1,11.9-3.8,18-5
		c15.5-3,31.4-3,47,0c15.8,3,30.8,9.2,44.1,18c13.9,9.2,25.8,21.1,35,35c8.8,13.4,15,28.4,18,44.2c4.2,21.5,2.5,43.7-4.7,64.4
		c-0.6,1.8-1.4,3.9-2,5.3c-3,7.5-6.8,14.6-11.3,21.4c-9.2,13.9-21.1,25.8-35,35c-6.7,4.4-13.9,8.2-21.4,11.2
		c-1.4,0.6-2.9,1.1-4.7,1.8c-5.9,2.1-11.9,3.8-18.1,5c-23.4,4.5-47.6,2.2-69.7-6.7c-7.5-3-14.7-6.8-21.4-11.3
		c-13.9-9.2-25.8-21.1-35-35c-8.8-13.4-15-28.4-18-44.1c-4.2-21.5-2.5-43.7,4.7-64.4c0.6-1.7,1.4-3.9,2-5.3
		c3-7.5,6.8-14.7,11.3-21.4c13.7-20.8,33.4-36.9,56.4-46.3C-44.9-114.5-43.3-115-41.6-115.7z"/>
	<path d="M4.7,140.3l-2.1,0l-0.8,0.9v1.7l0.8,0.8l2.1,0l0.8-0.9l-0.1-1.7L4.7,140.3z M-34.1-139.7l-2,0.5l-0.6,1.1l0.4,1.7l0.9,0.6
		l1-0.2l1-0.2l0.6-1l-0.4-1.7L-34.1-139.7z M-6.5,140.2c-0.5,0-1,0-1,0l-0.8,0.8l-0.1,1.7l0.7,0.9h0.3h0.7h1.1l0.8-0.9l0.1-1.7
		l-0.7-0.8H-6.5z M-54-133.2l-2,0.8l-0.4,1.1l0.7,1.6l1,0.4l1.9-0.8l0.4-1.1l-0.6-1.6L-54-133.2z M-47.6,132.1l-1,0.5l-0.6,1.6
		l0.4,1l2,0.7l1-0.6l0.6-1.6l-0.4-1L-47.6,132.1z M15,139.6c0,0-0.5,0.1-1,0.1l-1,0.1l-0.7,0.9l0.1,1.7l0.8,0.8l1-0.1
		c0.5,0,1-0.1,1-0.1l0.7-1l-0.2-1.7L15,139.6z M-44.1-136.8l-2,0.7l-0.5,1.1l0.6,1.6l1,0.5l1.9-0.7l0.5-1.1l-0.5-1.7L-44.1-136.8z
		 M-27.9,137.6l-0.5,0.4l-0.5,0.3l-0.3,1.7l0.3,0.5l0.3,0.5l2.1,0.4l1-0.7l0.3-1.7l-0.6-0.9L-27.9,137.6z M-37.9,135.2l-1,0.6
		l-0.5,1.7l0.5,1l2,0.6l1-0.6l0.4-1.7l-0.5-1L-37.9,135.2z M7.3-143.6H6.6H5.6l-0.8,0.9L4.7-141l0.7,0.8h1c0.5,0,1,0,1,0l0.8-0.8
		l0.1-1.7l-0.7-0.9H7.3z M-137.9-30.2l0.9-0.6l0.5-2l-0.7-1l-1.7-0.4l-1,0.5l-0.5,2l0.7,1L-137.9-30.2z M-2.8-143.7l-2.1,0l-0.8,0.9
		l0.1,1.7l0.8,0.8l2.1-0.1l0.8-0.9v-1.7L-2.8-143.7z M63.8,125l-1.8,0.9l-0.3,1.1l0.8,1.6l1,0.4l1.9-1l0.3-1.1l-0.8-1.5L63.8,125z
		 M89.5,108.1c0,0-0.4,0.3-0.8,0.6l-0.8,0.6l-0.1,1.2l1.1,1.4l1.1,0.2l0.8-0.6c0.4-0.3,0.8-0.7,0.8-0.7v-1.2l-1.1-1.3L89.5,108.1z
		 M-13.3-143.1l-1,0.1c-0.5,0-1,0.1-1,0.1l-0.7,1l0.1,1.7l0.8,0.7c0,0,0.5-0.1,1-0.1l1-0.1l0.7-0.9l-0.1-1.7L-13.3-143.1z
		 M81.4,114.3l-1.7,1.2l-0.2,1.2l1,1.4l1.1,0.2l1.7-1.2l0.1-1.2l-1-1.4L81.4,114.3z M72.8,120l-1.8,1l-0.3,1.1l0.9,1.5l1.1,0.3
		l1.8-1l0.2-1.1l-0.9-1.5L72.8,120z M25.2,138.1l-2,0.4l-0.6,1l0.3,1.7l0.9,0.7l2.1-0.4l0.6-1l-0.3-1.7L25.2,138.1z M35.2,135.9
		l-1,0.2l-1,0.2l-0.6,1l0.4,1.7l0.9,0.6l2-0.5l0.6-1.1l-0.4-1.7L35.2,135.9z M-57,128.3l-1.1,0.5l-0.7,1.6l0.3,1.1l1.9,0.9l1.1-0.5
		l0.7-1.6l-0.4-1L-57,128.3z M45,133l-1.9,0.7l-0.5,1.1l0.5,1.6l1,0.5l2-0.7l0.5-1.1l-0.6-1.6L45,133z M54.6,129.4l-1.9,0.8
		l-0.4,1.1l0.6,1.6l1,0.5l2-0.8l0.4-1.1l-0.7-1.6L54.6,129.4z M-17.7,139.3l-0.9,0.8l-0.2,1.7l0.6,0.9l2.1,0.3l0.9-0.8l0.2-1.7
		l-0.6-0.9L-17.7,139.3z M-137.1,30.2l-0.5-2l-1-0.6l-1.7,0.3l-0.7,0.9l0.5,2l1,0.6l1.7-0.4L-137.1,30.2z M-139,20.2l-0.3-2
		l-0.9-0.7l-1.7,0.2l-0.7,0.9l0.3,2.1l1,0.7l1.7-0.3L-139,20.2z M-134.6,40.2l-0.6-2l-1-0.5l-1.7,0.5l-0.6,0.9l0.6,2l1.1,0.5
		l1.7-0.5L-134.6,40.2z M-129.2,57.1l-1.6,0.7l-0.5,1l0.9,1.9l1.1,0.4l1.6-0.7l0.4-1l-0.9-1.9L-129.2,57.1z M-132,48l-1.1-0.5
		l-1.6,0.6l-0.5,1c0,0,0.2,0.5,0.4,1l0.4,1l1.1,0.4l1.6-0.6l0.5-1l-0.4-1C-131.8,48.4-132,48-132,48L-132,48z M-140.8,10.8l0.7-0.8
		l-0.2-2l-0.9-0.7l-1.7,0.1l-0.8,0.8l0.2,2.1l0.9,0.7L-140.8,10.8z M-143,0.5h1.7l0.4-0.4l0.4-0.4l0.1-2.1l-0.8-0.8h-1.7l-0.8,0.7
		l-0.1,2.1l0.4,0.4L-143,0.5z M-123.6,66.6l-1.1-0.3l-1.5,0.8l-0.4,1.1c0,0,0.2,0.5,0.5,0.9l0.5,0.9l1.2,0.3l1.5-0.9l0.3-1l-0.5-0.9
		C-123.4,67.1-123.6,66.6-123.6,66.6L-123.6,66.6z M-66.3,123.8l-1.1,0.4l-0.9,1.5l0.3,1.1l1.9,1l1.1-0.4l0.8-1.5l-0.3-1
		L-66.3,123.8z M-104.3-97.7h-1.1l-0.7,0.8c-0.4,0.4-0.7,0.8-0.7,0.8l0.1,1.2l1.3,1.2h1.1c0,0,0.3-0.4,0.7-0.8l0.7-0.7l-0.1-1.2
		L-104.3-97.7z M-96.9-105l-1.1-0.1l-1.5,1.4v1.2l1.2,1.2l1.1,0.1l1.5-1.4v-1.2L-96.9-105z M-140.9-9.8l0.9-0.7l0.2-2l-0.8-0.9
		l-1.7-0.2l-0.9,0.6l-0.2,2.1l0.8,0.9L-140.9-9.8z M-139.8-20.1l0.9-0.6c0,0,0-0.5,0.1-1l0.2-1l-0.7-0.9l-1.7-0.3l-0.9,0.6l-0.2,1
		c-0.1,0.5-0.2,1-0.2,1l0.8,0.9L-139.8-20.1z M-91.6,106.4l-1.2,0.1l-1.1,1.3v1.1l1.6,1.4l1.2-0.1l1.1-1.3v-1.1L-91.6,106.4z
		 M-90.1-112l-0.8,0.7c-0.4,0.3-0.8,0.7-0.8,0.7v1.2l1.1,1.3l1.1,0.1c0,0,0.4-0.3,0.8-0.7l0.8-0.6l0.1-1.2l-1.1-1.3L-90.1-112z
		 M-100.3,99.4l-1.2,1.2l-0.1,1.1l1.5,1.4l1.2-0.1l1.2-1.3v-1.1l-1.5-1.4L-100.3,99.4z M-63.6-128.9l-1.9,1l-0.3,1.1l0.8,1.5l1,0.4
		l1.8-0.9l0.3-1.1l-0.8-1.6L-63.6-128.9z M-75.1,118.6l-1.1,0.3l-0.9,1.5l0.2,1.1l1.7,1.1l1.1-0.3l0.9-1.5l-0.2-1.1L-75.1,118.6z
		 M-83.6,112.8l-0.6,0.1l-0.6,0.1l-1,1.4l0.1,0.6l0.1,0.5l1.7,1.2l1.2-0.2l1-1.4l-0.1-1.1L-83.6,112.8z M-119.5,75.2l-1.5,0.9
		l-0.3,1.1l1.1,1.8l1.2,0.2l1.4-1l0.3-1.1l-1.1-1.7L-119.5,75.2z M-72.8-123.9l-1.8,1.1l-0.2,1.2l0.9,1.5l1,0.3l1.8-1l0.3-1.1
		l-0.9-1.5L-72.8-123.9z M-113.7,83.8l-1.4,1l-0.2,1.1l1.3,1.7l1.2,0.1l1.4-1.1l0.2-1.1l-1.3-1.6L-113.7,83.8z M-81.6-118.3
		l-1.7,1.2l-0.2,1.2l1,1.4l1.1,0.2l1.7-1.2l0.2-1.2l-1-1.4L-81.6-118.3z M-107.3,91.8l-1.3,1.1l-0.1,1.1l1.4,1.6h1.2l1.3-1.2
		l0.1-1.1l-1.3-1.6L-107.3,91.8z M-23.7-141.8l-2.1,0.4l-0.6,1l0.3,1.7l0.9,0.7l2-0.4l0.6-1l-0.3-1.7L-23.7-141.8z M92.2-110.2
		l-1.2,0.1l-1.1,1.3v1.1l1.6,1.3l1.2-0.1l1.1-1.3v-1.1L92.2-110.2z M98.8-103.1l-1.2,1.3v1.1l1.5,1.4h1.2l1.2-1.2l0.1-1.1l-1.5-1.5
		L98.8-103.1z M85.6-115.4l-1.7-1.2l-1.2,0.2l-1,1.4l0.1,1.1l1.7,1.2l0.6-0.1l0.6-0.1l1-1.4l-0.1-0.6L85.6-115.4z M123.5-66.6
		l1.1,0.3l1.5-0.8l0.4-1.1c0,0-0.2-0.5-0.5-0.9l-0.5-0.9l-1.2-0.2l-1.5,0.8l-0.3,1l0.5,0.9C123.3-67,123.5-66.6,123.5-66.6
		L123.5-66.6z M-117.4-81.5l-1.1,0.2l-0.6,0.9c-0.3,0.4-0.6,0.9-0.6,0.9l0.3,1.2l1.4,1l1.1-0.2l0.6-0.9l0.6-0.8l-0.2-1.1
		L-117.4-81.5z M66-127.6l-1.1,0.4l-0.8,1.5l0.3,1l1.8,0.9l1.1-0.4l0.8-1.5l-0.3-1.1L66-127.6z M75.1-122.5l-1.1,0.3l-0.9,1.5
		l0.2,1.1l1.7,1.1l1.1-0.3l0.9-1.5l-0.2-1.1L75.1-122.5z M129.1-57l1.6-0.7l0.4-1l-0.9-1.9l-1.1-0.4l-1.6,0.7l-0.4,1l0.9,1.9
		L129.1-57z M131.9-47.9l1.1,0.5l1.6-0.6l0.5-1c0,0-0.2-0.5-0.4-1l-0.4-1l-1.1-0.4l-1.6,0.6l-0.5,1l0.4,1
		C131.7-48.4,131.9-47.9,131.9-47.9L131.9-47.9z M-135.4-40.2l1-0.5l0.3-1l0.3-1l-0.6-1l-1.7-0.5l-1,0.5l-0.3,1l-0.3,1l0.6,1
		L-135.4-40.2z M138.9-20.1l0.3,2l1,0.7l1.7-0.2l0.7-0.8l-0.3-2.1l-1-0.7l-1.7,0.3L138.9-20.1z M137-30.2l0.5,2l1,0.6l1.7-0.3
		l0.7-0.9l-0.5-2l-1-0.6l-1.7,0.4L137-30.2z M143.3,0l-0.5-0.4h-1.7l-0.4,0.4l-0.4,0.4l0,2.1l0.8,0.8h1.7l0.8-0.7l0-2.1L143.3,0z
		 M-121.6-71.8l-1.5-0.9l-1.1,0.2l-1,1.8l0.4,1.1l1.5,0.8l1-0.2l1-1.8L-121.6-71.8z M134.5-40.1l0.6,2l1,0.5l1.7-0.5l0.6-0.9l-0.6-2
		l-1.1-0.5L135-41L134.5-40.1z M-111.2-89.8l-1.1,0.1l-1.3,1.7l0.2,1.2l1.4,1.1l1.1-0.1l1.3-1.6l-0.2-1.2L-111.2-89.8z M-126.2-61.7
		l-0.4-1.1l-1.5-0.8l-1,0.3l-0.5,0.9l-0.4,1l0.5,1.1l1.6,0.7l1-0.3l0.4-0.9L-126.2-61.7z M140.7-10.7L140-9.9l0.2,2l0.9,0.7l1.7-0.1
		l0.8-0.8l-0.2-2.1l-0.9-0.7L140.7-10.7z M-132.1-50l1-0.4l0.8-1.9l-0.5-1.1l-1.6-0.7l-1,0.4l-0.8,2l0.5,1.1L-132.1-50z M139.7,20.2
		l-0.9,0.6c0,0,0,0.5-0.1,1l-0.2,1l0.7,0.9l1.7,0.3l0.9-0.6l0.2-1c0.1-0.5,0.2-1,0.2-1l-0.8-0.9L139.7,20.2z M123.2,68.7l-1.1,0.3
		l-1,1.8l0.3,1.1l1.5,0.9l1.1-0.2l1-1.8l-0.4-1.1L123.2,68.7z M28.5-140.9l-2.1-0.4l-1,0.7l-0.3,1.7l0.6,0.9l2,0.4l0.5-0.4l0.6-0.3
		l0.4-1.7l-0.4-0.5L28.5-140.9z M117.9,77.5l-1.1,0.2l-0.6,0.9l-0.6,0.8l0.2,1.1l1.4,1l1.1-0.1l0.6-0.9c0.3-0.4,0.6-0.9,0.6-0.9
		l-0.3-1.2L117.9,77.5z M140.7,9.9l-0.9,0.7l-0.2,2l0.8,0.9l1.7,0.2l0.9-0.7l0.2-2.1l-0.8-0.9L140.7,9.9z M36.7-139l-1,0.6l-0.4,1.7
		l0.5,1l2,0.6l1-0.6l0.5-1.7l-0.5-1L36.7-139z M111.9,85.9l-1.1,0.1l-1.3,1.6l0.2,1.2l1.3,1.1l1.1-0.1l1.3-1.6l-0.2-1.2L111.9,85.9z
		 M132,50l-1,0.4l-0.8,1.9l0.5,1.1l1.6,0.7l1-0.4l0.8-2l-0.5-1.1L132,50z M135.3,40.3l-1,0.5l-0.3,1l-0.3,1l0.6,1l1.6,0.5l1-0.5
		l0.3-1l0.3-1l-0.6-1L135.3,40.3z M137.8,30.3l-1,0.6l-0.5,2l0.6,1l1.7,0.4l1-0.5l0.5-2l-0.7-1L137.8,30.3z M105.3,93.9h-1.1
		c0,0-0.3,0.4-0.7,0.8l-0.7,0.7l0.1,1.2l1.3,1.2h1.1l0.7-0.8c0.4-0.4,0.7-0.8,0.7-0.8l-0.1-1.2L105.3,93.9z M98.2,101.3l-1.1-0.1
		l-1.5,1.4v1.1l1.2,1.3l1.1,0.1l1.5-1.4v-1.2L98.2,101.3z M106.1-95.6l-1.3,1.2l-0.1,1.1l1.3,1.6h1.2l1.3-1.1l0.1-1.1l-1.4-1.6
		L106.1-95.6z M56.5-132.2l-1.1,0.5l-0.7,1.6l0.4,1l1.9,0.8l1.1-0.4l0.7-1.5l-0.4-1.1L56.5-132.2z M112.7-87.6l-1.4,1.1l-0.2,1.1
		l1.3,1.6l1.1,0.1l1.4-1l0.2-1.1l-1.3-1.7L112.7-87.6z M127.9,59.5l-1,0.3l-0.4,0.9l-0.5,0.9l0.4,1.1l1.5,0.8l1.1-0.3l0.5-0.9l0.4-1
		l-0.5-1.1L127.9,59.5z M46.7-135.9l-1,0.6l-0.6,1.6l0.4,1l1.9,0.7l1-0.6l0.6-1.6l-0.4-1L46.7-135.9z M120.1-78.9l-1.2-0.2l-1.4,1
		l-0.3,1.1l1.1,1.7l1.1,0.2l1.5-0.9l0.3-1.1L120.1-78.9z M16.1-142.8l-0.9,0.8l-0.2,1.7l0.6,0.9l2,0.3l0.9-0.8l0.2-1.8l-0.6-0.9
		L16.1-142.8z"/>
	<path d="M-95.8-39.8h-18.7c-4.3,12.5-6.6,25.7-6.7,39h25.4V-39.8z M-0.9-121.1c-13.2,0.1-26.4,2.3-38.9,6.7v18.8h38.9V-121.1z
		 M-39.8,39.8h2.8C-1,38.5-1,19.8-1,0c0-16.9,0-34.3,23.8-39.9H0.3L-39.8,0.3V39.8z M39.7-41.6v-19.2H0.8v19.3h36.4L39.7-41.6z
		 M-41.6-113.8c-1.6,0.6-2.9,1.1-4.1,1.5c-7.1,2.9-14,6.5-20.5,10.7l24.5,56.7V-113.8z M-101.6-66c-4.2,6.5-7.8,13.3-10.7,20.5
		c-0.5,1.2-1,2.4-1.5,4h69L-101.6-66z M-67.6-100.6c-13.1,8.8-24.3,20-33.1,33.1l58.3,25.2L-67.6-100.6z M-0.9-93.9h-38.9v52.4h38.9
		V-93.9z M100.7-67.4c-8.8-13.2-20.2-24.5-33.3-33.3L41.5-61.5v20h20L100.7-67.4z M113.7-41.5c-0.6-1.6-1-2.8-1.5-4
		c-2.9-7.1-6.4-13.9-10.6-20.3l-37,24.4L113.7-41.5z M45.5-112.2c-1.2-0.5-2.4-1-4-1.5v49.1l24.4-37
		C59.5-105.8,52.7-109.4,45.5-112.2z M39.7-114.4c-12.5-4.3-25.7-6.6-38.9-6.7v58.6h38.9V-114.4z M62.5-0.9h58.6
		c-0.1-13.3-2.3-26.4-6.7-38.9H62.5L62.5-0.9z M0.8,94h38.9V41.5H0.8L0.8,94z M93.8,39.8V0.9H40.9L2,39.9L93.8,39.8z M60.7-39.8
		H41.5v38.9h19.2V-39.8z M-62.7,0.9h-58.5c0.1,13.2,2.3,26.4,6.7,38.9h51.8V0.9z M67.5,100.6c13.1-8.8,24.3-20,33.1-33.1L42.3,42.3
		L67.5,100.6z M41.5,113.9c1.6-0.6,2.9-1,4-1.5c7.1-2.9,14-6.5,20.5-10.7L41.4,44.9L41.5,113.9z M0.8,95.8v25.4
		c13.2-0.1,26.4-2.3,38.9-6.7V95.8H0.8z M95.6,39.8h18.8c4.3-12.5,6.6-25.7,6.7-38.9H95.6L95.6,39.8z M101.5,66.1
		c4.2-6.5,7.8-13.3,10.7-20.5c0.5-1.2,1-2.5,1.5-4.1H44.9L101.5,66.1z M-39.8,114.5c12.5,4.3,25.7,6.6,38.9,6.7V62.7h-38.9
		L-39.8,114.5z M-39.8,41.6v19.3h38.9V41.5H-37C-37.9,41.6-38.8,41.6-39.8,41.6z M-60.9,39.8h19.4V0.9h-19.4V39.8z M-45.6,112.3
		c1.2,0.5,2.5,1,4.1,1.5V64.6L-66,101.7C-59.6,105.9-52.7,109.4-45.6,112.3L-45.6,112.3z M-100.8,67.4c8.8,13.2,20.1,24.5,33.3,33.4
		l25.9-39.3v-20h-19.9L-100.8,67.4z M-113.9,41.5c0.6,1.6,1.1,2.9,1.5,4.1c2.9,7.1,6.4,13.9,10.6,20.3l37.1-24.4H-113.9z M-94-39.8
		v38.9h53l38.9-38.9L-94-39.8z"/>
</symbol>
<title>1056</title>
<use xlink:href="#_1056_outline_cleaned"  width="292.5" height="292.3" id="XMLID_1_" x="-146.3" y="-146.1" transform="matrix(0.9997 0 0 0.9997 146.22 146.255)" style="overflow:visible;"/>
</svg>
